<svg id="Ebene_1" data-name="Ebene 1" xmlns="http://www.w3.org/2000/svg" xmlns:xlink="http://www.w3.org/1999/xlink" viewBox="0 0 1257.27 286.29"><defs><style>.cls-1,.cls-15,.cls-16,.cls-20,.cls-21,.cls-22,.cls-24,.cls-25{fill:none;}.cls-1{stroke:#211944;stroke-width:12px;}.cls-1,.cls-15,.cls-20,.cls-22,.cls-23,.cls-24,.cls-25,.cls-26,.cls-27,.cls-28,.cls-29{stroke-miterlimit:10;}.cls-2,.cls-23,.cls-26{fill:#fff;}.cls-3{fill:url(#Unbenannter_Verlauf_25);}.cls-4{fill:url(#Unbenannter_Verlauf_24);}.cls-5{fill:url(#Unbenannter_Verlauf_23);}.cls-6{fill:url(#Unbenannter_Verlauf_28);}.cls-7{fill:url(#Unbenannter_Verlauf_26);}.cls-8{fill:url(#Unbenannter_Verlauf_27);}.cls-9{fill:url(#Unbenannter_Verlauf_17);}.cls-10{fill:url(#Unbenannter_Verlauf_18);}.cls-11{fill:url(#Unbenannter_Verlauf_19);}.cls-12{fill:url(#Unbenannter_Verlauf_20);}.cls-13{fill:url(#Unbenannter_Verlauf_21);}.cls-14{fill:url(#Unbenannter_Verlauf_22);}.cls-15{stroke:#fff;}.cls-17{fill:#c7b299;}.cls-18{fill:#603813;}.cls-19{fill:#ff7bac;}.cls-20,.cls-21,.cls-22,.cls-23,.cls-24,.cls-25,.cls-26,.cls-27,.cls-28,.cls-29{stroke:#000;}.cls-20,.cls-21,.cls-26,.cls-27,.cls-28,.cls-29{stroke-width:3px;}.cls-21{stroke-linecap:round;stroke-linejoin:round;}.cls-22{stroke-width:7px;}.cls-23{stroke-width:6px;}.cls-24{stroke-width:4px;}.cls-25{stroke-width:2px;}.cls-27{fill:#736357;}.cls-28{fill:#ffa87d;}.cls-29{fill:#a82a43;}.cls-30{opacity:0.35;}</style><linearGradient id="Unbenannter_Verlauf_25" x1="50.95" y1="-42.25" x2="53.67" y2="191.04" gradientUnits="userSpaceOnUse"><stop offset="0.33" stop-color="#7fd296"/><stop offset="0.36" stop-color="#7dd097"/><stop offset="1" stop-color="#4b9cbc"/></linearGradient><linearGradient id="Unbenannter_Verlauf_24" x1="145.12" y1="-43.35" x2="147.83" y2="189.95" gradientUnits="userSpaceOnUse"><stop offset="0.18" stop-color="#99ed83"/><stop offset="0.41" stop-color="#87da90"/><stop offset="0.88" stop-color="#58a9b3"/><stop offset="1" stop-color="#4b9cbc"/></linearGradient><linearGradient id="Unbenannter_Verlauf_23" x1="243.79" y1="-44.49" x2="246.5" y2="188.8" gradientUnits="userSpaceOnUse"><stop offset="0.13" stop-color="#99ed83"/><stop offset="0.38" stop-color="#87da90"/><stop offset="0.88" stop-color="#58a9b3"/><stop offset="1" stop-color="#4b9cbc"/></linearGradient><linearGradient id="Unbenannter_Verlauf_28" x1="329.49" y1="-45.49" x2="332.2" y2="187.81" gradientUnits="userSpaceOnUse"><stop offset="0.17" stop-color="#99ed83"/><stop offset="0.4" stop-color="#87da90"/><stop offset="0.88" stop-color="#58a9b3"/><stop offset="1" stop-color="#4b9cbc"/></linearGradient><linearGradient id="Unbenannter_Verlauf_26" x1="399.21" y1="-46.3" x2="401.93" y2="187" gradientUnits="userSpaceOnUse"><stop offset="0.22" stop-color="#99ed83"/><stop offset="0.44" stop-color="#87da90"/><stop offset="0.89" stop-color="#58a9b3"/><stop offset="1" stop-color="#4b9cbc"/></linearGradient><linearGradient id="Unbenannter_Verlauf_27" x1="469.28" y1="-47.11" x2="472" y2="186.18" gradientUnits="userSpaceOnUse"><stop offset="0.19" stop-color="#99ed83"/><stop offset="0.42" stop-color="#87da90"/><stop offset="0.89" stop-color="#58a9b3"/><stop offset="1" stop-color="#4b9cbc"/></linearGradient><linearGradient id="Unbenannter_Verlauf_17" x1="547.32" y1="-48.02" x2="550.04" y2="185.27" gradientUnits="userSpaceOnUse"><stop offset="0.12" stop-color="#99ed83"/><stop offset="0.37" stop-color="#87da90"/><stop offset="0.88" stop-color="#58a9b3"/><stop offset="1" stop-color="#4b9cbc"/></linearGradient><linearGradient id="Unbenannter_Verlauf_18" x1="635.48" y1="-49.05" x2="638.2" y2="184.25" gradientUnits="userSpaceOnUse"><stop offset="0.13" stop-color="#99ed83"/><stop offset="0.38" stop-color="#87da90"/><stop offset="0.88" stop-color="#58a9b3"/><stop offset="1" stop-color="#4b9cbc"/></linearGradient><linearGradient id="Unbenannter_Verlauf_19" x1="726.21" y1="-50.1" x2="728.92" y2="183.19" gradientUnits="userSpaceOnUse"><stop offset="0.22" stop-color="#99ed83"/><stop offset="0.44" stop-color="#87da90"/><stop offset="0.89" stop-color="#58a9b3"/><stop offset="1" stop-color="#4b9cbc"/></linearGradient><linearGradient id="Unbenannter_Verlauf_20" x1="816.06" y1="-51.15" x2="818.78" y2="182.15" gradientUnits="userSpaceOnUse"><stop offset="0.18" stop-color="#99ed83"/><stop offset="0.42" stop-color="#87da90"/><stop offset="0.88" stop-color="#58a9b3"/><stop offset="1" stop-color="#4b9cbc"/></linearGradient><linearGradient id="Unbenannter_Verlauf_21" x1="894.11" y1="-52.05" x2="896.82" y2="181.24" gradientUnits="userSpaceOnUse"><stop offset="0.22" stop-color="#99ed83"/><stop offset="0.44" stop-color="#87da90"/><stop offset="0.89" stop-color="#58a9b3"/><stop offset="1" stop-color="#4b9cbc"/></linearGradient><linearGradient id="Unbenannter_Verlauf_22" x1="963.16" y1="-52.86" x2="965.87" y2="180.44" gradientUnits="userSpaceOnUse"><stop offset="0.17" stop-color="#99ed83"/><stop offset="0.41" stop-color="#87da90"/><stop offset="0.88" stop-color="#58a9b3"/><stop offset="1" stop-color="#4b9cbc"/></linearGradient></defs><path class="cls-1" d="M45,111v39.16H13.3V44.78H45V83.39H61.3V44.78H92.93V150.17H61.3V111Z" transform="translate(-6.07 -10.4)"/><path class="cls-1" d="M136.51,132.21l-4.07,18H100.32L125.94,44.78h45.24l24.31,105.39H163.72l-4.14-18Zm5.66-24.72h11.74l-5.8-25.76Z" transform="translate(-6.07 -10.4)"/><path class="cls-1" d="M234,150.17h-31.7V44.78H233l12.85,22,12.91-22h30.94V150.17H258V97.41l-12.15,20.37L234,97.41Z" transform="translate(-6.07 -10.4)"/><path class="cls-1" d="M306.27,108.73A35.68,35.68,0,0,0,314.62,121q5.06,4.62,9.47,4.62a5,5,0,0,0,3.9-1.65,6.2,6.2,0,0,0,1.48-4.29,8.25,8.25,0,0,0-1.1-4.31,9.74,9.74,0,0,0-3.39-3.21l-7.66-4.84Q309,102.17,305.2,95.4t-3.77-16.64q0-35.78,34.4-35.78a59.37,59.37,0,0,1,28.73,7.19l-7.94,33.22a35.3,35.3,0,0,0-8.29-11.61q-4.69-4.07-9.53-4.07a5.48,5.48,0,0,0-4,1.48,5.22,5.22,0,0,0-1.52,3.9,6.87,6.87,0,0,0,2,5.12q2,1.94,9.36,6.21a64.11,64.11,0,0,1,11.88,8.15,27.7,27.7,0,0,1,6.7,9.7,35.56,35.56,0,0,1,2.48,13.92q0,35.57-34.53,35.57A69.35,69.35,0,0,1,298.46,144Z" transform="translate(-6.07 -10.4)"/><path class="cls-1" d="M416.91,150.17h-31.7V87.39h-16V44.78h63.61V87.39H416.91Z" transform="translate(-6.07 -10.4)"/><path class="cls-1" d="M473.47,123.72h27.76v26.45H441.77V44.78h59.46V71.23H473.47v13h19.41v26.45H473.47Z" transform="translate(-6.07 -10.4)"/><path class="cls-1" d="M510.9,150.17V44.78h31.7q16.51,0,22.1,1.1a19.46,19.46,0,0,1,9.74,5,27.65,27.65,0,0,1,6.67,10.64,40.34,40.34,0,0,1,2.52,14.26q0,15.88-8.08,23.89,11.67,19.35,13.88,50.49H556.49v-1q0-18.57-3.53-28.31T543,111.15h-.42v39Zm32.26-83.71h-.56V86.77h.83q4.64,0,6.7-2.49t2.07-7.94Q552.2,66.47,543.16,66.46Z" transform="translate(-6.07 -10.4)"/><path class="cls-1" d="M597,44.78h31.7V80q6.35-.14,11.46-8.22t5.11-25.69V44.78h32.39v1.45q0,35.43-14.16,51,16.1,18.86,16.1,51.66v1.24H645.3v-1.11q0-17.4-4.31-27.17T628.73,111.7v38.47H597Z" transform="translate(-6.07 -10.4)"/><path class="cls-1" d="M717.68,132.21l-4.07,18H681.49L707.11,44.78h45.24l24.31,105.39H744.89l-4.14-18ZM715.75,19.92a5.25,5.25,0,0,1,4.38,2.66A11.21,11.21,0,0,1,722,29.1a11.26,11.26,0,0,1-1.83,6.49,5.25,5.25,0,0,1-4.38,2.7q-2.49,0-4.29-2.7a11.47,11.47,0,0,1-1.79-6.49,11.7,11.7,0,0,1,1.76-6.46A5.09,5.09,0,0,1,715.75,19.92Zm7.59,87.57h11.74l-5.8-25.76Zm18.58-87.57a5.28,5.28,0,0,1,4.35,2.66,11,11,0,0,1,1.87,6.52,11.06,11.06,0,0,1-1.87,6.49q-1.86,2.7-4.35,2.7a5.24,5.24,0,0,1-4.38-2.7,11.19,11.19,0,0,1-1.83-6.49,11.34,11.34,0,0,1,1.79-6.52A5.23,5.23,0,0,1,741.92,19.92Z" transform="translate(-6.07 -10.4)"/><path class="cls-1" d="M821.9,44.78h31.7V84q0,17.05-.73,24.72a72.63,72.63,0,0,1-3.52,16.06,45.56,45.56,0,0,1-7.63,14.36,36.14,36.14,0,0,1-11,9.29,26.38,26.38,0,0,1-12.6,3.32,28.72,28.72,0,0,1-16-5.11,35.57,35.57,0,0,1-12.19-13.71,61.46,61.46,0,0,1-6-18.61q-1.59-10-1.59-30V44.78H814V93.61a39.61,39.61,0,0,0,.76,9.22c.51,1.86,1.48,2.79,2.9,2.79q2.57,0,3.39-3.21t.83-13.22Z" transform="translate(-6.07 -10.4)"/><path class="cls-1" d="M898.28,150.17h-31.7V44.78h59.6V71.23h-27.9V90.36h20.24v26.45H898.28Z" transform="translate(-6.07 -10.4)"/><path class="cls-1" d="M967.41,123.72h27.77v26.45H935.71V44.78h59.47V71.23H967.41v13h19.41v26.45H967.41Z" transform="translate(-6.07 -10.4)"/><path class="cls-2" d="M75.86,234.5q0,11.1-8.72,17.37t-22.82,6.26q-14.1,0-23.11-6.2t-9-16.25V171.85q0-3.16-3.64-4.78c-1.66-.74-2.49-1.59-2.49-2.54V161.8c0-1,.83-1.43,2.49-1.43H38.47c1.41,0,2.11.43,2.11,1.3v2.86c0,.95-.83,1.8-2.49,2.54-2.43,1.07-3.64,2.67-3.64,4.78v64.5q0,12.9,13.23,12.9,14.48,0,14.47-15.13V171.85c0-2.11-1.21-3.71-3.64-4.78-1.66-.74-2.49-1.59-2.49-2.54V161.8c0-1,.83-1.43,2.49-1.43H79.89c1.4,0,2.11.43,2.11,1.3v2.86c0,.95-.83,1.8-2.5,2.54-2.42,1.08-3.64,2.67-3.64,4.78Z" transform="translate(-6.07 -10.4)"/><path class="cls-2" d="M144.79,212.62V171.88c0-2.12-1.21-3.71-3.64-4.79q-2.49-1.07-2.49-2.55V161.8c0-1,.83-1.43,2.49-1.43h21.67c1.4,0,2.11.43,2.11,1.3v2.86c0,.95-.8,1.8-2.4,2.54q-3.74,1.68-3.74,4.78v83.49q0,2-2.79,2h-4.22a4.26,4.26,0,0,1-4-2L108,187.68v57.66c0,2.16,1.23,3.77,3.68,4.85,1.64.7,2.45,1.53,2.45,2.48v2.79c0,1-.82,1.43-2.47,1.43H90.23c-1.4,0-2.1-.44-2.1-1.31v-2.91c0-.91.83-1.74,2.5-2.48,2.42-1.12,3.64-2.74,3.64-4.85V171.85c0-2.11-1.22-3.7-3.64-4.78-1.67-.7-2.5-1.55-2.5-2.54V161.8c0-1,.83-1.43,2.49-1.43h20.25a8.38,8.38,0,0,1,3,.34,3.87,3.87,0,0,1,1.53,1.65Z" transform="translate(-6.07 -10.4)"/><path class="cls-2" d="M216.89,167.57v77.77c0,2.16,1.21,3.77,3.64,4.85,1.66.7,2.5,1.53,2.5,2.48v2.79c0,1-.84,1.43-2.5,1.43H190.62c-1.41,0-2.11-.44-2.11-1.31v-2.91c0-.91.83-1.74,2.49-2.48q3.65-1.68,3.65-4.85V167.57h-4.22q-4.69,0-7,2.3T179.4,180c-.13.71-.8,1.06-2,1.06h-3.74c-2.17,0-3.26-.6-3.26-1.8V161.18c0-1.41,1-2.11,3.07-2.11q1.92,0,6.81.49,7.86.81,11.88.81h33.94q2.59-.24,6.33-.68,5.76-.56,6.33-.56c1.72,0,2.59.52,2.59,1.55v18.56c0,1.2-.83,1.8-2.5,1.8H235.2q-2.2,0-2.64-.81a29.57,29.57,0,0,1-1.39-4q-1.72-5.34-3.54-7t-6.43-1.64Z" transform="translate(-6.07 -10.4)"/><path class="cls-2" d="M314.87,256.89H249.2c-1.53,0-2.3-.5-2.3-1.49v-2.73q0-1.3,3.16-2.86a4.71,4.71,0,0,0,2.78-4.47V171.85q0-3.22-3.55-4.84c-1.59-.7-2.39-1.53-2.39-2.48v-3c0-.79.77-1.18,2.3-1.18h49.28c.89,0,2.59-.06,5.08-.19,2.23-.12,3.64-.18,4.22-.18,2.11,0,3.16.37,3.16,1.12v18.24c0,1-.14,1.52-.43,1.71a6,6,0,0,1-2.45.28h-3.54c-1.54,0-2.4-.58-2.59-1.74a20,20,0,0,0-3.79-8.28q-2.73-3.45-11-3.45H275.08V203h4.41q4.13,0,5.66-1t3.84-6.43a6.55,6.55,0,0,1,1.05-1.92,4.49,4.49,0,0,1,1.73-.19H296c1.67,0,2.5.52,2.5,1.55v23.41c0,1-.77,1.49-2.3,1.49h-4.41a3.31,3.31,0,0,1-2-.47,8.59,8.59,0,0,1-1.53-2.89q-1.73-4.39-3.74-5.37a13.16,13.16,0,0,0-5.56-1h-3.84V249.5H288q7.19,0,10-2.2t6.9-12.07a3.46,3.46,0,0,1,3.45-2.24h4.12c1.6,0,2.4.52,2.4,1.55Z" transform="translate(-6.07 -10.4)"/><path class="cls-2" d="M348.23,211.7v33.64c0,2.16,1.22,3.77,3.65,4.85,1.66.7,2.49,1.53,2.49,2.48v2.79c0,1-.83,1.43-2.49,1.43H322c-1.41,0-2.11-.44-2.11-1.31v-2.91c0-.91.83-1.74,2.49-2.48q3.64-1.68,3.64-4.85V171.85q0-3.16-3.64-4.78c-1.66-.7-2.49-1.55-2.49-2.54V161.8c0-1,.83-1.43,2.49-1.43h25.12q21.28,0,32.4,6.21T391,184.52q0,18.67-26.74,24.14,7.86,2.49,11.93,5.62a19.69,19.69,0,0,1,6.28,9.22l7,19.67a14.67,14.67,0,0,0,2.64,5.12,12.33,12.33,0,0,0,4.26,2.52,1.23,1.23,0,0,1,.87,1.18v3.53c0,.91-.71,1.37-2.11,1.37H376c-1.85,0-3-.67-3.53-2l-13.13-34.13q-2.1-5.64-4.65-7.32A11.84,11.84,0,0,0,348.23,211.7Zm0-43.82v36.44q10.36,0,15.25-4.23t4.89-15q0-10.55-4.94-13.87T348.23,167.88Z" transform="translate(-6.07 -10.4)"/><path class="cls-2" d="M436,164.53V161.3c0-.62.73-.93,2.2-.93h24.93q21.09,0,35.57,11.14t14.48,36.16a70.35,70.35,0,0,1-4.37,24.67,36.23,36.23,0,0,1-14,18.16q-9.64,6.39-32.46,6.39H437.68c-1.15,0-1.72-.35-1.72-1.06v-3.16c0-.91.8-1.74,2.39-2.48q3.56-1.74,3.55-4.85V171.85a4.77,4.77,0,0,0-3.16-4.59C436.88,166.39,436,165.48,436,164.53Zm28.09,3.23v81.93q9.58,0,14.86-3t7.67-13a100,100,0,0,0,2.4-23.09q0-14.09-1.83-22.34t-4.55-12.45a15.28,15.28,0,0,0-6.76-5.92Q471.82,168.13,464.05,167.76Z" transform="translate(-6.07 -10.4)"/><path class="cls-2" d="M590.12,256.89H524.45c-1.54,0-2.3-.5-2.3-1.49v-2.73q0-1.3,3.16-2.86a4.71,4.71,0,0,0,2.78-4.47V171.85q0-3.22-3.55-4.84c-1.59-.7-2.39-1.53-2.39-2.48v-3c0-.79.76-1.18,2.3-1.18h49.28c.89,0,2.58-.06,5.08-.19,2.23-.12,3.64-.18,4.22-.18,2.1,0,3.16.37,3.16,1.12v18.24c0,1-.14,1.52-.43,1.71a6,6,0,0,1-2.45.28h-3.54c-1.54,0-2.4-.58-2.59-1.74a20,20,0,0,0-3.79-8.28q-2.73-3.45-11-3.45H550.33V203h4.41q4.13,0,5.66-1t3.83-6.43a6.71,6.71,0,0,1,1.06-1.92,4.49,4.49,0,0,1,1.73-.19h4.21c1.66,0,2.5.52,2.5,1.55v23.41c0,1-.77,1.49-2.3,1.49H567a3.31,3.31,0,0,1-2-.47,8.59,8.59,0,0,1-1.53-2.89q-1.72-4.39-3.74-5.37a13.16,13.16,0,0,0-5.56-1h-3.84V249.5h12.95q7.19,0,10-2.2t6.9-12.07A3.46,3.46,0,0,1,583.6,233h4.12c1.6,0,2.4.52,2.4,1.55Z" transform="translate(-6.07 -10.4)"/><path class="cls-2" d="M623.48,211.7v33.64c0,2.16,1.22,3.77,3.65,4.85,1.66.7,2.49,1.53,2.49,2.48v2.79c0,1-.83,1.43-2.49,1.43H597.22c-1.41,0-2.11-.44-2.11-1.31v-2.91c0-.91.83-1.74,2.49-2.48q3.64-1.68,3.64-4.85V171.85q0-3.16-3.64-4.78c-1.66-.7-2.49-1.55-2.49-2.54V161.8c0-1,.83-1.43,2.49-1.43h25.12q21.28,0,32.4,6.21t11.12,17.94q0,18.67-26.74,24.14,7.85,2.49,11.93,5.62a19.69,19.69,0,0,1,6.28,9.22l7,19.67a14.67,14.67,0,0,0,2.64,5.12,12.33,12.33,0,0,0,4.26,2.52,1.22,1.22,0,0,1,.86,1.18v3.53c0,.91-.7,1.37-2.1,1.37H651.26c-1.85,0-3-.67-3.53-2L634.6,220.76q-2.1-5.64-4.65-7.32A11.84,11.84,0,0,0,623.48,211.7Zm0-43.82v36.44q10.37,0,15.25-4.23t4.89-15q0-10.55-4.94-13.87T623.48,167.88Z" transform="translate(-6.07 -10.4)"/><path class="cls-2" d="M717.06,245.34V171.85q0-3.16-3.65-4.78c-1.66-.7-2.49-1.55-2.49-2.54V161.8c0-1,.83-1.43,2.49-1.43h29.91c1.41,0,2.11.43,2.11,1.3v2.86c0,.95-.83,1.8-2.49,2.54q-3.65,1.68-3.64,4.78V249.5h8.15q7.18,0,11.17-2.88t5.89-9.84a13.23,13.23,0,0,1,1.1-3.07c.23-.27.79-.41,1.68-.41h4.51c1.72,0,2.59.46,2.59,1.37v22.22H713.32c-2.11,0-3.17-.62-3.17-1.86v-2.36c0-.95.93-1.78,2.78-2.48C715.68,249.11,717.06,247.5,717.06,245.34Z" transform="translate(-6.07 -10.4)"/><path class="cls-2" d="M849.17,234.5q0,11.1-8.73,17.37t-22.81,6.26q-14.1,0-23.11-6.2t-9-16.25V171.85c0-2.11-1.22-3.7-3.64-4.78-1.67-.74-2.5-1.59-2.5-2.54V161.8c0-1,.83-1.43,2.5-1.43h29.91c1.4,0,2.11.43,2.11,1.3v2.86c0,.95-.83,1.8-2.5,2.54-2.43,1.07-3.64,2.67-3.64,4.78v64.5q0,12.9,13.23,12.9,14.47,0,14.48-15.13V171.85c0-2.11-1.22-3.71-3.65-4.78-1.66-.74-2.49-1.59-2.49-2.54V161.8c0-1,.83-1.43,2.49-1.43h21.38c1.41,0,2.11.43,2.11,1.3v2.86c0,.95-.83,1.8-2.49,2.54q-3.64,1.62-3.64,4.78Z" transform="translate(-6.07 -10.4)"/><path class="cls-2" d="M889.82,212.51v32.83c0,2.16,1.21,3.77,3.64,4.85,1.66.7,2.49,1.53,2.49,2.48v2.79c0,1-.83,1.43-2.49,1.43H863.55c-1.41,0-2.11-.44-2.11-1.31v-2.91c0-.91.83-1.74,2.49-2.48q3.65-1.68,3.65-4.85V171.85q0-3.16-3.65-4.78c-1.66-.7-2.49-1.55-2.49-2.54V161.8c0-1,.83-1.43,2.49-1.43h25.89q21.09,0,32.64,7.11T934,186.38Q934,212.51,889.82,212.51Zm0-44.75v37.42q8.63,0,12.6-1.27a11.53,11.53,0,0,0,6.38-5.09q2.4-3.81,2.4-11.82T909,175.11a12,12,0,0,0-6.61-5.55Q898,167.94,889.82,167.76Z" transform="translate(-6.07 -10.4)"/><path class="cls-2" d="M1009.08,256.89H943.41c-1.53,0-2.3-.5-2.3-1.49v-2.73q0-1.3,3.16-2.86a4.71,4.71,0,0,0,2.78-4.47V171.85q0-3.22-3.55-4.84c-1.59-.7-2.39-1.53-2.39-2.48v-3c0-.79.77-1.18,2.3-1.18h49.28c.89,0,2.59-.06,5.08-.19,2.23-.12,3.64-.18,4.22-.18,2.11,0,3.16.37,3.16,1.12v18.24c0,1-.14,1.52-.43,1.71a6,6,0,0,1-2.45.28h-3.54c-1.54,0-2.4-.58-2.59-1.74a20,20,0,0,0-3.79-8.28q-2.73-3.45-11-3.45H969.29V203h4.42c2.74,0,4.63-.34,5.65-1s2.3-2.83,3.84-6.43a6.55,6.55,0,0,1,1-1.92,4.49,4.49,0,0,1,1.73-.19h4.22c1.66,0,2.49.52,2.49,1.55v23.41c0,1-.77,1.49-2.3,1.49H986a3.31,3.31,0,0,1-2-.47,8.59,8.59,0,0,1-1.53-2.89q-1.73-4.39-3.74-5.37a13.16,13.16,0,0,0-5.56-1h-3.84V249.5h13q7.18,0,10-2.2t6.9-12.07a3.46,3.46,0,0,1,3.45-2.24h4.12c1.6,0,2.4.52,2.4,1.55Z" transform="translate(-6.07 -10.4)"/><path class="cls-3" d="M44.45,110.05v39.16H12.75V43.82h31.7v38.6h16.3V43.82H92.38V149.21H60.75V110.05Z" transform="translate(-6.07 -10.4)"/><path class="cls-4" d="M136,131.25l-4.07,18H99.77L125.4,43.82h45.23l24.31,105.39H163.17l-4.14-18Zm5.67-24.72h11.74l-5.81-25.76Z" transform="translate(-6.07 -10.4)"/><path class="cls-5" d="M233.41,149.21h-31.7V43.82h30.73l12.85,22,12.91-22h30.95V149.21H257.44V96.44l-12.15,20.38L233.41,96.44Z" transform="translate(-6.07 -10.4)"/><path class="cls-6" d="M305.72,107.77A35.65,35.65,0,0,0,314.08,120q5,4.64,9.46,4.63a5,5,0,0,0,3.9-1.66,6.16,6.16,0,0,0,1.49-4.28,8.19,8.19,0,0,0-1.11-4.32,9.89,9.89,0,0,0-3.38-3.21l-7.67-4.83q-8.36-5.11-12.12-11.88T300.89,77.8Q300.89,42,335.28,42A59.47,59.47,0,0,1,364,49.2l-7.94,33.22a35.36,35.36,0,0,0-8.29-11.6q-4.69-4.08-9.53-4.07a5.5,5.5,0,0,0-4,1.48,5.22,5.22,0,0,0-1.52,3.9,6.85,6.85,0,0,0,2,5.11q2,1.94,9.36,6.22a63.63,63.63,0,0,1,11.88,8.15,27.7,27.7,0,0,1,6.7,9.7,35.34,35.34,0,0,1,2.49,13.92q0,35.56-34.54,35.57A69.28,69.28,0,0,1,297.92,143Z" transform="translate(-6.07 -10.4)"/><path class="cls-7" d="M416.36,149.21h-31.7V86.43h-16V43.82h63.6V86.43H416.36Z" transform="translate(-6.07 -10.4)"/><path class="cls-8" d="M472.92,122.76h27.77v26.45H441.22V43.82h59.47V70.27H472.92v13h19.41v26.45H472.92Z" transform="translate(-6.07 -10.4)"/><path class="cls-9" d="M510.36,149.21V43.82h31.7q16.5,0,22.1,1.1a19.43,19.43,0,0,1,9.73,5,27.54,27.54,0,0,1,6.67,10.64,40.3,40.3,0,0,1,2.52,14.26q0,15.89-8.08,23.89,11.67,19.34,13.88,50.49H555.94v-1q0-18.57-3.52-28.32t-9.95-9.73h-.41v39ZM542.61,65.5h-.55V85.81h.82q4.64,0,6.7-2.49c1.39-1.66,2.08-4.3,2.08-7.94Q551.66,65.51,542.61,65.5Z" transform="translate(-6.07 -10.4)"/><path class="cls-10" d="M596.48,43.82h31.7V79q6.35-.14,11.46-8.22t5.11-25.69V43.82h32.39v1.45q0,35.43-14.15,51,16.08,18.84,16.09,51.65v1.25H644.75V148.1q0-17.4-4.31-27.17t-12.26-10.19v38.47h-31.7Z" transform="translate(-6.07 -10.4)"/><path class="cls-11" d="M717.13,131.25l-4.07,18H680.94L706.57,43.82H751.8l24.31,105.39H744.34l-4.14-18ZM715.2,19a5.27,5.27,0,0,1,4.38,2.66,11.26,11.26,0,0,1,1.83,6.53,11.26,11.26,0,0,1-1.83,6.49,5.24,5.24,0,0,1-4.38,2.69c-1.66,0-3.09-.89-4.28-2.69a11.4,11.4,0,0,1-1.8-6.49,11.68,11.68,0,0,1,1.76-6.46C712.06,19.86,713.49,19,715.2,19Zm7.6,87.58h11.74l-5.81-25.76ZM741.37,19a5.31,5.31,0,0,1,4.35,2.66,11.06,11.06,0,0,1,1.87,6.53,11.06,11.06,0,0,1-1.87,6.49c-1.24,1.8-2.69,2.69-4.35,2.69A5.24,5.24,0,0,1,737,34.63a11.26,11.26,0,0,1-1.83-6.49A11.47,11.47,0,0,1,737,21.61,5.25,5.25,0,0,1,741.37,19Z" transform="translate(-6.07 -10.4)"/><path class="cls-12" d="M821.35,43.82h31.7V83q0,17.07-.73,24.73a72.06,72.06,0,0,1-3.52,16.06,45.36,45.36,0,0,1-7.63,14.36,36.1,36.1,0,0,1-11,9.29,26.45,26.45,0,0,1-12.61,3.32,28.8,28.8,0,0,1-16-5.11A35.57,35.57,0,0,1,789.37,132a61.79,61.79,0,0,1-6-18.62q-1.59-10-1.58-30V43.82h31.7V92.64a39.1,39.1,0,0,0,.76,9.23c.5,1.86,1.47,2.79,2.9,2.79q2.55,0,3.38-3.21t.83-13.23Z" transform="translate(-6.07 -10.4)"/><path class="cls-13" d="M897.73,149.21H866V43.82h59.61V70.27H897.73V89.4H918v26.45H897.73Z" transform="translate(-6.07 -10.4)"/><path class="cls-14" d="M966.87,122.76h27.76v26.45H935.17V43.82h59.46V70.27H966.87v13h19.4v26.45h-19.4Z" transform="translate(-6.07 -10.4)"/><path class="cls-2" d="M19.11,139c-.62-15.21-.87-30.43-1-45.65l0-11.42,0-11.41q.09-11.42.3-22.83V47h.65c3.63.09,7.26.16,10.88.29s7.25.21,10.88.38c-3.63.18-7.25.27-10.88.39s-7.25.19-10.88.28l.67-.67q.22,11.42.29,22.83l0,11.41,0,11.42C20,108.56,19.74,123.78,19.11,139Z" transform="translate(-6.07 -10.4)"/><path class="cls-2" d="M66.56,48.58c.27,3.13.45,6.26.59,9.4s.25,6.26.3,9.4.08,6.26.11,9.4,0,6.26-.08,9.4l0,.91h-.87c-1.68,0-3.35,0-5,0s-3.34,0-5,0c-3.34,0-6.69-.13-10-.32,3.33-.39,6.67-.68,10-.92,1.66-.13,3.33-.22,5-.33s3.34-.17,5-.26l-.89.92c-.07-3.14-.06-6.27-.08-9.4s0-6.27.11-9.4.16-6.27.3-9.4S66.29,51.71,66.56,48.58Z" transform="translate(-6.07 -10.4)"/><path class="cls-2" d="M67.46,112.14a64.19,64.19,0,0,1,.77,7.16c.16,2.39.2,4.77.22,7.16s-.06,4.78-.21,7.16a66.67,66.67,0,0,1-.78,7.16,64.24,64.24,0,0,1-.79-7.16c-.15-2.38-.2-4.77-.21-7.16s.06-4.77.22-7.16A61.93,61.93,0,0,1,67.46,112.14Z" transform="translate(-6.07 -10.4)"/><path class="cls-2" d="M106,143.47q2.52-12,5.26-23.88t5.61-23.79c1.92-7.92,3.83-15.84,5.83-23.74s4-15.79,6-23.68l.16-.63h.63q9.07.12,18.13.3l9.06.23c3,.08,6,.17,9.07.29q-4.53.18-9.07.28l-9.06.24q-9.06.19-18.13.3l.8-.62q-2.82,11.88-5.73,23.76c-1.92,7.91-3.93,15.81-5.93,23.71s-4.07,15.78-6.17,23.65S108.19,135.63,106,143.47Z" transform="translate(-6.07 -10.4)"/><path class="cls-2" d="M150.84,80.77c1,2.31,1.89,4.65,2.76,7s1.69,4.71,2.49,7.08,1.57,4.75,2.31,7.14,1.46,4.79,2.16,7.19l.36,1.24-1.26,0c-2.91-.06-5.83-.15-8.74-.29s-5.83-.34-8.75-.65c2.92-.31,5.83-.5,8.75-.64s5.83-.24,8.74-.3l-.9,1.22c-.76-2.38-1.53-4.76-2.25-7.16s-1.43-4.79-2.1-7.2-1.32-4.83-1.91-7.26S151.32,83.23,150.84,80.77Z" transform="translate(-6.07 -10.4)"/><path class="cls-2" d="M163.24,130.94a19.32,19.32,0,0,1,1.4,3.62,33.72,33.72,0,0,1,.84,3.71,29.92,29.92,0,0,1,.41,3.78,18.77,18.77,0,0,1-.14,3.88,19.32,19.32,0,0,1-1.4-3.62,31.57,31.57,0,0,1-.84-3.71,34,34,0,0,1-.41-3.79A19.39,19.39,0,0,1,163.24,130.94Z" transform="translate(-6.07 -10.4)"/><path class="cls-2" d="M230.2,48.58c-4.16.18-8.32.28-12.48.4s-8.33.2-12.49.29l.69-.69q.21,12.17.27,24.34l0,12.17,0,12.16q-.08,12.18-.28,24.34c-.16,8.12-.37,16.23-.68,24.34-.32-8.11-.53-16.22-.69-24.34s-.23-16.22-.28-24.34l0-12.16,0-12.17q.08-12.18.27-24.34l0-.71.68,0c4.16.09,8.32.15,12.49.28S226,48.4,230.2,48.58Z" transform="translate(-6.07 -10.4)"/><path class="cls-2" d="M246,70.2c1.05-1.93,2.17-3.81,3.3-5.69s2.29-3.73,3.47-5.57,2.38-3.66,3.57-5.5L260,48l.28-.41.5,0c4.17-.13,8.33-.23,12.5-.22s8.34.07,12.52.32c-4.15.56-8.31.92-12.47,1.22s-8.31.5-12.48.67l.79-.43-3.75,5.38c-1.28,1.77-2.53,3.56-3.84,5.31s-2.62,3.51-4,5.24S247.4,68.52,246,70.2Z" transform="translate(-6.07 -10.4)"/><path class="cls-2" d="M236.65,96.51a27.57,27.57,0,0,1,3,3.51q1.35,1.85,2.52,3.79a45.41,45.41,0,0,1,2.14,4,26,26,0,0,1,1.67,4.31,26.87,26.87,0,0,1-3-3.51q-1.35-1.84-2.52-3.79c-.77-1.3-1.49-2.65-2.14-4A26.89,26.89,0,0,1,236.65,96.51Z" transform="translate(-6.07 -10.4)"/><line class="cls-15" x1="254.35" y1="84.2" x2="254.35" y2="135.53"/><path class="cls-2" d="M338.16,44.78a45.48,45.48,0,0,0-12.91,3.74,33.45,33.45,0,0,0-10.66,7.72c-.76.8-1.42,1.67-2.1,2.54s-1.26,1.81-1.79,2.77-1,2-1.55,2.93L308.51,66a13.75,13.75,0,0,0-.59,1.55,57,57,0,0,0-2.79,13.2,38.91,38.91,0,0,1,1.3-13.68c.27-1.13.73-2.2,1.11-3.3s.92-2.15,1.51-3.17a28.32,28.32,0,0,1,4.07-5.72,30.56,30.56,0,0,1,11.52-7.81A33.5,33.5,0,0,1,338.16,44.78Z" transform="translate(-6.07 -10.4)"/><path class="cls-2" d="M303.12,140.78c.18-1.75.42-3.48.67-5.22s.53-3.46.83-5.19q.9-5.18,2-10.31L307,118l1.32,1.71a35,35,0,0,0,4.3,4.66,21.47,21.47,0,0,0,5.2,3.52,10.87,10.87,0,0,0,6,1.08,12.64,12.64,0,0,0,5.85-2.5,11.29,11.29,0,0,1-5.66,3.55,10.91,10.91,0,0,1-3.47.24,14.41,14.41,0,0,1-3.38-.83,20.58,20.58,0,0,1-5.82-3.6,28.83,28.83,0,0,1-4.63-5l1.76-.36q-1.14,5.11-2.47,10.2c-.44,1.7-.9,3.38-1.38,5.07S303.67,139.11,303.12,140.78Z" transform="translate(-6.07 -10.4)"/><path class="cls-2" d="M341.39,86.77a21.94,21.94,0,0,1,7.2,3.36,32.89,32.89,0,0,1,6,5.31,35.24,35.24,0,0,1,4.52,6.6,32.79,32.79,0,0,1,1.66,3.62,39.44,39.44,0,0,1,1.17,3.79c-.74-1.1-1.35-2.26-2.05-3.35l-1.05-1.64c-.33-.55-.69-1.09-1.07-1.61s-.74-1.06-1.09-1.59l-1.17-1.53c-.2-.25-.38-.51-.57-.77l-.61-.73c-.42-.49-.81-1-1.24-1.47a55.26,55.26,0,0,0-5.43-5.39A47.37,47.37,0,0,0,341.39,86.77Z" transform="translate(-6.07 -10.4)"/><path class="cls-2" d="M428,48.58c-2.28.14-4.57.23-6.85.32s-4.57.19-6.85.25c-4.56.14-9.13.23-13.69.3s-9.14.11-13.7.12-9.13,0-13.7,0l1-1c-.06,5.52-.14,11.05-.29,16.57-.08,2.77-.15,5.53-.28,8.29s-.21,5.53-.38,8.29c-.17-2.76-.26-5.53-.38-8.29s-.19-5.52-.28-8.29q-.21-8.28-.29-16.57v-.95h1c4.57,0,9.13-.07,13.7,0s9.13,0,13.7.12,9.13.15,13.69.3c2.28.05,4.57.16,6.85.25S425.72,48.44,428,48.58Z" transform="translate(-6.07 -10.4)"/><path class="cls-2" d="M388.92,86.77c.42,4.93.63,9.86.78,14.79s.2,9.86.22,14.79-.06,9.86-.22,14.79-.36,9.86-.78,14.79c-.41-4.93-.63-9.86-.78-14.79s-.2-9.86-.22-14.79.07-9.86.23-14.79S388.51,91.7,388.92,86.77Z" transform="translate(-6.07 -10.4)"/><path class="cls-2" d="M496.08,47.68c-4.23.15-8.46.25-12.69.35s-8.46.2-12.69.26q-12.69.21-25.38.3l.91-.91c.08,8.19.06,16.38.09,24.57l-.1,24.56q-.09,12.27-.3,24.56c-.06,4.09-.16,8.19-.26,12.28s-.19,8.19-.34,12.28c-.15-4.09-.24-8.19-.34-12.28s-.19-8.19-.26-12.28q-.21-12.28-.29-24.56l-.11-24.56c0-8.19,0-16.38.1-24.57v-.91h.9q12.69.07,25.38.3,6.35.09,12.69.26C487.62,47.44,491.85,47.53,496.08,47.68Z" transform="translate(-6.07 -10.4)"/><path class="cls-2" d="M489.23,86.77a16.23,16.23,0,0,1-3.42.78,26.45,26.45,0,0,1-3.43.22,28,28,0,0,1-3.42-.21,16.49,16.49,0,0,1-3.43-.79A16.49,16.49,0,0,1,479,86a28,28,0,0,1,3.42-.21,26.45,26.45,0,0,1,3.43.22A16.23,16.23,0,0,1,489.23,86.77Z" transform="translate(-6.07 -10.4)"/><path class="cls-2" d="M498.05,127.36a55.58,55.58,0,0,1-6.64.77c-2.21.16-4.42.21-6.63.23s-4.43-.06-6.64-.22a57.75,57.75,0,0,1-6.64-.78,53.63,53.63,0,0,1,6.64-.78c2.21-.16,4.42-.21,6.64-.22s4.42.06,6.63.22A55.61,55.61,0,0,1,498.05,127.36Z" transform="translate(-6.07 -10.4)"/><path class="cls-2" d="M551.66,47.68c-3.16.12-6.31.22-9.47.29l-9.46.24q-9.47.2-18.93.3l.83-.83q.14,12.28.16,24.57c0,8.18,0,16.37-.06,24.56s-.14,16.37-.29,24.56c-.07,4.09-.15,8.19-.27,12.28s-.2,8.19-.37,12.28c-.16-4.09-.25-8.19-.36-12.28s-.2-8.19-.27-12.28q-.23-12.28-.3-24.56c0-8.19-.08-16.38,0-24.56s.07-16.38.15-24.57v-.84h.82c6.31.08,12.62.17,18.93.31l9.46.23C545.35,47.47,548.5,47.56,551.66,47.68Z" transform="translate(-6.07 -10.4)"/><path class="cls-2" d="M542.6,89.53a36.73,36.73,0,0,0,6.81-2.65,11.68,11.68,0,0,0,2.65-2.1,15,15,0,0,0,2-3,6.3,6.3,0,0,1-.75,4,8,8,0,0,1-2.94,2.94,10.55,10.55,0,0,1-3.86,1.22A9.06,9.06,0,0,1,542.6,89.53Z" transform="translate(-6.07 -10.4)"/><path class="cls-2" d="M559.32,145.93A131.41,131.41,0,0,0,558,129.59c-.37-2.69-.94-5.34-1.57-8s-1.51-5.22-2.32-7.9a31.39,31.39,0,0,1,3.81,7.45,16,16,0,0,1,.66,2c.19.68.41,1.34.58,2,.31,1.36.61,2.73.81,4.12a47.84,47.84,0,0,1,.51,8.37A35.53,35.53,0,0,1,559.32,145.93Z" transform="translate(-6.07 -10.4)"/><path class="cls-2" d="M625,47.68c-4.23.19-8.46.28-12.69.41s-8.46.2-12.69.29l.69-.7q.21,12.28.27,24.57l0,12.28,0,12.28q-.08,12.27-.28,24.56c-.16,8.19-.37,16.37-.68,24.56-.32-8.19-.52-16.37-.69-24.56s-.23-16.38-.27-24.56l0-12.28,0-12.28q.06-12.28.26-24.57l0-.71.68,0c4.23.09,8.46.15,12.69.29S620.76,47.5,625,47.68Z" transform="translate(-6.07 -10.4)"/><path class="cls-2" d="M673.73,47.68c-2.15.17-4.3.26-6.44.38s-4.3.19-6.45.27q-6.45.22-12.89.29l.94-1a67.3,67.3,0,0,1-.66,11,48.23,48.23,0,0,1-2.7,10.73,22.69,22.69,0,0,1-6.14,9.25,12.73,12.73,0,0,1-4.91,2.66,14.46,14.46,0,0,1-5.46.43,16.56,16.56,0,0,0,5.25-1,13.07,13.07,0,0,0,4.34-2.9,23.32,23.32,0,0,0,5.27-9,54.78,54.78,0,0,0,2.39-10.39A79.76,79.76,0,0,0,647,47.71v-1H648q6.45.09,12.89.29c2.15.08,4.3.16,6.45.28S671.58,47.52,673.73,47.68Z" transform="translate(-6.07 -10.4)"/><path class="cls-2" d="M644.86,123.78a21.22,21.22,0,0,1,2.48,5.17,29.81,29.81,0,0,1,1.33,5.58,27.65,27.65,0,0,1,.27,5.75,21.35,21.35,0,0,1-1,5.65c-.25-1.92-.35-3.77-.57-5.61s-.42-3.67-.69-5.5-.54-3.65-.86-5.48Z" transform="translate(-6.07 -10.4)"/><path class="cls-2" d="M748.14,47.68c-3.21.12-6.41.21-9.62.29l-9.62.24q-9.61.2-19.23.3l.8-.63q-2.91,12.32-5.91,24.6c-2,8.2-4,16.37-6.11,24.55s-4.19,16.34-6.35,24.49-4.39,16.29-6.69,24.41q2.63-12.37,5.45-24.71t5.78-24.64c2-8.19,4-16.39,6-24.57s4.11-16.36,6.22-24.52l.16-.64h.64q9.62.12,19.23.3l9.62.24C741.73,47.47,744.93,47.56,748.14,47.68Z" transform="translate(-6.07 -10.4)"/><path class="cls-2" d="M731.34,80.77c1,2.31,1.83,4.65,2.66,7s1.64,4.72,2.4,7.09,1.48,4.76,2.2,7.14,1.39,4.78,2,7.19l.33,1.22-1.22,0c-1.36,0-2.73-.06-4.1-.12s-2.73-.09-4.1-.18c-2.74-.14-5.47-.33-8.21-.63,2.74-.29,5.47-.48,8.21-.63,1.37-.08,2.73-.12,4.1-.18s2.74-.07,4.1-.11l-.88,1.18c-.76-2.37-1.47-4.76-2.17-7.15s-1.38-4.79-2-7.2-1.26-4.83-1.82-7.26S731.78,83.23,731.34,80.77Z" transform="translate(-6.07 -10.4)"/><path class="cls-2" d="M743.33,129.15a24.28,24.28,0,0,1,1.82,4,40.38,40.38,0,0,1,1.28,4.14,41,41,0,0,1,.85,4.25,24.54,24.54,0,0,1,.31,4.39,24.28,24.28,0,0,1-1.82-4,41.34,41.34,0,0,1-1.28-4.15c-.35-1.39-.63-2.81-.85-4.25A25.32,25.32,0,0,1,743.33,129.15Z" transform="translate(-6.07 -10.4)"/><path class="cls-2" d="M741.63,23.11c-1-.14-1.83,0-2.14.49a4.69,4.69,0,0,0-.8,1.92c-.11.38-.19.79-.27,1.21s-.17.85-.26,1.28a16.86,16.86,0,0,1-.78,2.7,8.12,8.12,0,0,1-.79-2.77,6.38,6.38,0,0,1-.05-1.45l.06-.73.16-.74a5,5,0,0,1,.59-1.48,3.16,3.16,0,0,1,1.27-1.24,2.26,2.26,0,0,1,1.79-.15A2.36,2.36,0,0,1,741.63,23.11Z" transform="translate(-6.07 -10.4)"/><path class="cls-2" d="M716.56,23.11c-1-.14-1.82,0-2.14.49a4.69,4.69,0,0,0-.79,1.92,10.73,10.73,0,0,0-.27,1.21c-.11.42-.18.85-.27,1.28a15.89,15.89,0,0,1-.78,2.7,8.12,8.12,0,0,1-.79-2.77,7,7,0,0,1,0-1.45l0-.73.16-.74a5.58,5.58,0,0,1,.59-1.48,3.19,3.19,0,0,1,1.28-1.24,2.24,2.24,0,0,1,1.78-.15A2.36,2.36,0,0,1,716.56,23.11Z" transform="translate(-6.07 -10.4)"/><path class="cls-16" d="M810.47,45.89H784.11s-.49,39.39,1.3,59.09a62.92,62.92,0,0,0,12.8,32.56" transform="translate(-6.07 -10.4)"/><path class="cls-2" d="M851.65,46.79c-2.31.13-4.62.22-6.93.31s-4.63.19-6.94.24l-6.94.18-6.94.13.86-.87.19,8,.12,8.05c.06,5.36.11,10.73.1,16.1s0,10.7-.12,16.15a31.51,31.51,0,0,1-1.27,8.05,9,9,0,0,1-2,3.61,3.22,3.22,0,0,1-1.84,1,4.11,4.11,0,0,1-2-.27,4.07,4.07,0,0,0,2,.06,3.15,3.15,0,0,0,1.59-1A8.46,8.46,0,0,0,823.1,103a35.88,35.88,0,0,0,.71-7.89c-.2-5.29-.36-10.71-.47-16.07s-.2-10.74-.25-16.11L823,54.86v-9l.86,0,6.94.13,6.94.17c2.31.05,4.62.16,6.94.25S849.34,46.66,851.65,46.79Z" transform="translate(-6.07 -10.4)"/><path class="cls-2" d="M811.37,46.79q-3.36.18-6.71.28l-6.72.24c-4.47.13-9,.22-13.43.3l.82-.81c0,6,0,12,0,18s-.12,12-.22,18l-.2,9-.07,2.25c0,.75,0,1.45,0,2.22,0,1.49.13,3,.2,4.47.18,3,.43,6,.82,8.93a27.6,27.6,0,0,0,2.26,8.62c-1.65-2.54-2.34-5.57-3-8.5a89.72,89.72,0,0,1-1.37-8.94c-.16-1.5-.29-3-.4-4.51l-.07-1.13c0-.37,0-.79,0-1.15l0-2.25,0-9c0-6,0-12,.13-18s.19-12,.34-18l0-.82h.79c4.48.08,9,.17,13.43.3l6.72.23C806.89,46.58,809.13,46.67,811.37,46.79Z" transform="translate(-6.07 -10.4)"/><path class="cls-15" d="M819.15,107.71" transform="translate(-6.07 -10.4)"/><path class="cls-2" d="M923.49,46.79c-4.6.16-9.19.25-13.79.36s-9.2.19-13.8.25l-13.8.19c-4.6.08-9.2.06-13.8.09l.9-.89.09,24.78-.11,24.79c0,8.26-.21,16.52-.3,24.79,0,4.13-.15,8.26-.25,12.39s-.18,8.26-.33,12.39c-.14-4.13-.23-8.26-.32-12.39s-.2-8.26-.25-12.39c-.09-8.27-.29-16.53-.3-24.79l-.11-24.79.09-24.78v-.9h.89c4.6,0,9.2,0,13.8.09l13.8.2c4.6.06,9.2.13,13.8.25S918.89,46.63,923.49,46.79Z" transform="translate(-6.07 -10.4)"/><path class="cls-2" d="M916.24,91.72a33,33,0,0,1-5.08.77c-1.7.15-3.39.23-5.09.23s-3.39-.08-5.08-.22a34.24,34.24,0,0,1-5.09-.78,31.81,31.81,0,0,1,5.09-.78c1.69-.15,3.39-.23,5.08-.22s3.39.07,5.09.22A33,33,0,0,1,916.24,91.72Z" transform="translate(-6.07 -10.4)"/><path class="cls-2" d="M992.58,46.79c-4.6.16-9.2.25-13.8.36s-9.19.19-13.79.25l-13.8.19c-4.6.08-9.2.06-13.8.09l.9-.89.09,25-.12,25c0,8.35-.2,16.7-.29,25-.05,4.17-.15,8.35-.25,12.52s-.19,8.35-.33,12.52c-.14-4.17-.23-8.35-.33-12.52s-.2-8.35-.24-12.52c-.09-8.34-.3-16.69-.3-25l-.12-25,.1-25v-.9h.89c4.6,0,9.2,0,13.8.1l13.8.19c4.6.06,9.19.13,13.79.25S988,46.63,992.58,46.79Z" transform="translate(-6.07 -10.4)"/><path class="cls-2" d="M985,86.18a25.16,25.16,0,0,1-4.41.77,43.42,43.42,0,0,1-4.41.23c-1.47,0-2.94-.08-4.41-.22a26.16,26.16,0,0,1-4.41-.78,24.3,24.3,0,0,1,4.41-.78,40.7,40.7,0,0,1,4.41-.22,43.41,43.41,0,0,1,4.41.22A25.19,25.19,0,0,1,985,86.18Z" transform="translate(-6.07 -10.4)"/><path class="cls-2" d="M992.2,125.57a52.51,52.51,0,0,1-6.45.77c-2.15.16-4.3.21-6.45.23s-4.3-.06-6.45-.22a54.56,54.56,0,0,1-6.45-.78,50.67,50.67,0,0,1,6.45-.78c2.15-.16,4.3-.21,6.45-.22s4.3.06,6.45.22A52.54,52.54,0,0,1,992.2,125.57Z" transform="translate(-6.07 -10.4)"/><g id="Ebene_2" data-name="Ebene 2"><path class="cls-17" d="M1084.09,81.89,1046,96.14l-2.62,29.41-.89,1.83a59.8,59.8,0,0,1,6,5.54c4.5,4.51-6-1.75-6-1.75s2.33,4.76,3.07,7-3-2.45-3-2.45,1.45,6.82,5.23,10.24l.08,24.51s-.58,27.55,11.6,46.85,8.09,11.16,8.09,11.16l-12,19.5s-4.62,23.84,27.84,36.63c0,0,48.87,2.44,68.29-3.73s42.1-1.23,42.1-1.23,13.85,5.19,41.23,1.14,22.12-34.92,22.12-34.92,4.69,2.38-4.33-23.5l-9.44-12s15.84-21.54,16.42-37.64,1.79-13.29-7.1-36.22-13.24-34.31-13.24-34.31l-.59-11.87-2.33,2.76V84.8l-2.62,2.61Z" transform="translate(-6.07 -10.4)"/><circle class="cls-2" cx="1097.36" cy="144.03" r="35.18"/><path class="cls-18" d="M1236.3,131.35a152,152,0,0,0-33.57-9.27c3-2.51,4.44-5.6,3.42-8-1.48-3.48-7.53-4.23-13.51-1.69-4.21,1.79-7.27,4.73-8.2,7.52q-7-.53-14.72-.65c-.9,0-1.79,0-2.68-.06a35.69,35.69,0,0,1,69.26,12.16Z" transform="translate(-6.07 -10.4)"/><path class="cls-18" d="M1078.82,227.8s-14.34,11.14-23.45,24.16a56.71,56.71,0,0,1,3.42-14.51,36.54,36.54,0,0,0,1.45-5.13,2.34,2.34,0,0,1-.87-1.14c-1.82-4.38,1.16-6.53,1.57-6.8v-.12a17.26,17.26,0,0,1-1.53-5.74,5.14,5.14,0,0,1,0-1.24,130.61,130.61,0,0,1-7.25-17C1058.21,208.59,1070,223.71,1078.82,227.8Z" transform="translate(-6.07 -10.4)"/><path class="cls-2" d="M1202.73,122.08A18.61,18.61,0,0,1,1198,125c-6,2.54-12,1.79-13.5-1.69a4.66,4.66,0,0,1,0-3.37C1191.05,120.4,1197.14,121.14,1202.73,122.08Z" transform="translate(-6.07 -10.4)"/><path class="cls-19" d="M1193.42,62.7l0-.26v.22Z" transform="translate(-6.07 -10.4)"/><path class="cls-18" d="M1252.73,222.33a29.06,29.06,0,0,1,2.71,6C1246.55,218,1239,214.28,1239,214.28c4.1-4.26,7.45-8,10.12-11.26a4.42,4.42,0,0,1,1.24,3.78,16.15,16.15,0,0,1-2.4,6.71s4.35,2,3.11,6.28C1251.62,220.59,1252.18,221.43,1252.73,222.33Z" transform="translate(-6.07 -10.4)"/><path class="cls-19" d="M1245.33,50.22a47,47,0,0,1-3.07,16.84,33,33,0,0,1-2.94,6.21,30.61,30.61,0,0,1-7,7.54c.72-.54,6-4.74,9.65-14.91a57.23,57.23,0,0,0,3.35-15.56A.55.55,0,0,0,1245.33,50.22Z" transform="translate(-6.07 -10.4)"/><path class="cls-19" d="M1245.11,46.75a9.65,9.65,0,0,1,.22,3.47A33.49,33.49,0,0,0,1245.11,46.75Z" transform="translate(-6.07 -10.4)"/><path class="cls-19" d="M1056.71,107.25a10.4,10.4,0,0,0-2.72,3.86C1053.65,109.76,1055,108.4,1056.71,107.25Z" transform="translate(-6.07 -10.4)"/><path class="cls-19" d="M1198,48c2.87-3.19,9.54-9.78,18-12.67a51.66,51.66,0,0,1,11.77-1.09c.38.07.77.14,1.16.23,12,2.75,15.33,8.49,16.22,12.26a33.49,33.49,0,0,1,.22,3.47h0a.55.55,0,0,1,0,.12A57.31,57.31,0,0,1,1242,65.9c-3.7,10.17-8.93,14.37-9.65,14.91l-.09.06h0c-2.5-2-9.17-6-14.16-8.93a2.56,2.56,0,0,1-.52-.52c-.6-1-3.93-2.32-5.11-2.76l-.29-.16,5.67-.49-.26-.21h.13c-.93-2.54-6.94-2.24-9.15-2.41l6.42-3.44c-3-2.25-10.42.81-10.64.9l6-4.5a4.21,4.21,0,0,0-.71-.75l.27-.27a2.47,2.47,0,0,0-1.74-.53c-5.12-1.63-13.91,5.28-14.64,5.87v-.22a102.4,102.4,0,0,1,2.36-10.55A30.68,30.68,0,0,1,1198,48Z" transform="translate(-6.07 -10.4)"/><path class="cls-19" d="M1216,35.37c-8.43,2.88-15.09,9.47-18,12.67,4.1-6.17,10.54-11,17.37-12.55Z" transform="translate(-6.07 -10.4)"/><path class="cls-19" d="M1072.31,94.25l-20.5-.73-32.2,19.29c-.34-.52-.51-.83-.51-.83a14.68,14.68,0,0,1-.75-4.6,26.3,26.3,0,0,1,1.93-8.84v0a28.55,28.55,0,0,1,9.28-10.67,30,30,0,0,1,4.43-2.71A44.7,44.7,0,0,1,1045.33,82h0a40,40,0,0,1,17.94,2.69,15.36,15.36,0,0,1,3,1.55A21.24,21.24,0,0,1,1072.31,94.25Z" transform="translate(-6.07 -10.4)"/><path class="cls-19" d="M1196.47,49.83s.54-.7,1.53-1.81a30.68,30.68,0,0,0-2.18,3.87C1196.22,50.53,1196.47,49.83,1196.47,49.83Z" transform="translate(-6.07 -10.4)"/><path class="cls-18" d="M1159.61,50.32c.15.82.33,1.6.54,2.36a45.38,45.38,0,0,0-5.43,1.79A48.3,48.3,0,0,0,1159.61,50.32Z" transform="translate(-6.07 -10.4)"/><path class="cls-19" d="M1020.28,98.54a26.3,26.3,0,0,0-1.93,8.84A19.69,19.69,0,0,1,1020.28,98.54Z" transform="translate(-6.07 -10.4)"/><path class="cls-19" d="M1209.84,57.32l-.27.27a4.21,4.21,0,0,0-1.45-.8A2.45,2.45,0,0,1,1209.84,57.32Z" transform="translate(-6.07 -10.4)"/><path class="cls-19" d="M1072.31,94.25h0a51.38,51.38,0,0,0-10.45,1.41c-3.08.71-5.73,1.74-6.07,3.24l9.3,1.16h0c-.58,0-9.88,1-11.52,4.2h0a1.09,1.09,0,0,0-.08.15h.21l7.93-.29a17.82,17.82,0,0,0-4.84,3.12c-1.68,1.15-3.06,2.5-2.71,3.86l6.1-1.74h0c-.26.22-6.1,5.25-6.1,6.68a4.8,4.8,0,0,1-.62,1.61c-2.33,3.1-4.53,6.38-5.27,8.54l-.12.17c-.38,0-.78,0-1.19-.08-3.32-.69-13.32-2.86-16.07-4.13a27.62,27.62,0,0,1-11.11-9.35l32.19-19.28Z" transform="translate(-6.07 -10.4)"/><path class="cls-2" d="M1206.15,114.07c1,2.41-.43,5.5-3.42,8-5.59-.93-11.68-1.68-18.29-2.18.93-2.79,4-5.73,8.2-7.52C1198.62,109.84,1204.67,110.59,1206.15,114.07Z" transform="translate(-6.07 -10.4)"/><path class="cls-18" d="M1034,85.14a29.5,29.5,0,0,0-4.43,2.71,28.63,28.63,0,0,0-9.28,10.67C1022.31,93.64,1026.3,88.54,1034,85.14Z" transform="translate(-6.07 -10.4)"/><path class="cls-2" d="M1236.3,131.35v0a35.68,35.68,0,0,1-70.47,8.07,36.18,36.18,0,0,1,1.21-20.27c.89,0,1.78,0,2.68.06q7.74.12,14.72.65a4.66,4.66,0,0,0,0,3.37c1.47,3.48,7.52,4.23,13.5,1.69a18.61,18.61,0,0,0,4.76-2.88A152,152,0,0,1,1236.3,131.35Z" transform="translate(-6.07 -10.4)"/><path class="cls-19" d="M1061.81,95.66c-2.6.69-4.94,1.72-6.07,3.24C1056.08,97.41,1058.73,96.37,1061.81,95.66Z" transform="translate(-6.07 -10.4)"/><path class="cls-19" d="M1227.73,34.26A51.68,51.68,0,0,0,1216,35.37,23.34,23.34,0,0,1,1227.73,34.26Z" transform="translate(-6.07 -10.4)"/><path class="cls-18" d="M1019.61,112.81l-.46.29c-.19-.23-.38-.48-.56-.72a23.17,23.17,0,0,1-.24-5,14.79,14.79,0,0,0,.75,4.61S1019.27,112.29,1019.61,112.81Z" transform="translate(-6.07 -10.4)"/><path class="cls-19" d="M1053.48,104.28s0,.1-.07.16S1053.46,104.33,1053.48,104.28Z" transform="translate(-6.07 -10.4)"/><path class="cls-19" d="M1217.69,67.79h-.12c-3.78-2.82-9.5-2-9.77-2l.75-.4C1210.76,65.55,1216.77,65.25,1217.69,67.79Z" transform="translate(-6.07 -10.4)"/><path class="cls-18" d="M1248.66,127.25s2.95,6.37,5.88,14.25c-.16-.14-5.85-5-18.24-10.14a35.72,35.72,0,0,0-3.13-14.68s2.32-9.83,7-12.29l3.37,9.09Z" transform="translate(-6.07 -10.4)"/><path class="cls-18" d="M1066.25,86.2a16,16,0,0,0-3-1.55A40,40,0,0,0,1045.36,82C1046,81.82,1057.68,79.31,1066.25,86.2Z" transform="translate(-6.07 -10.4)"/><path class="cls-19" d="M1053.38,117.65c-1.34,2.62-4.43,7.27-5.28,8.54C1048.85,124.05,1051.05,120.76,1053.38,117.65Z" transform="translate(-6.07 -10.4)"/><path class="cls-18" d="M1218.06,71.93c2.62,2.14,13.78,8.71,14.16,8.94h0l.09-.07a30.46,30.46,0,0,0,7-7.53,26.19,26.19,0,0,1-6.91,7.58l1.43,6.56,2.62-2.61v8.28l2.33-2.76v10.27l1.41,3.8c-4.71,2.46-7,12.29-7,12.29a35.66,35.66,0,0,0-66.13,2.51c-58.27-1.79-83.1-34-83.1-34-2.62,3.2-11.63,9-11.63,9a13.77,13.77,0,0,0-6.06-8c-8.57-6.89-20.25-4.38-20.89-4.24h0A31.46,31.46,0,0,0,1034,85.13c-7.69,3.4-11.68,8.51-13.71,13.38v0a19.69,19.69,0,0,0-1.93,8.84,23.17,23.17,0,0,0,.24,5c-4-5.31-6.85-12.61-7.49-22.62-2.61-41,45.07-48,49.43-48,4,0,29.21,2.2,34.09,29.6,1-3,3.05-8.22,6.62-10.41,5.24-3.19-.87,1.43,0,8.28,0,0,6.4-12.93,14-14.67,0,0-3.57,6.1-3.24,9.59,0,0,11.38-17.44,20.68-17.44,0,0-4.91,7.56-5.65,13.52,0,0,9.62-13.52,21.89-13.52a111.64,111.64,0,0,1-9,9.77l-.58.53c.33-.24,9.91-8.09,20-9.92-.35-6.62,2-14.73,10.59-23.35,21.52-21.52,50.6-7.85,56.12-4.08,3.64,2.5,14.34,8.9,18.06,21.78-2.36-5.15-9.29-7-16.31-7.18A23.56,23.56,0,0,0,1216,35.35l-.58.14c-6.84,1.59-13.27,6.38-17.37,12.53-1,1.11-1.53,1.81-1.53,1.81s-.26.7-.65,2.06a24.06,24.06,0,0,0-2.36,10.55l0,.26,0,0v.11s10-6,14.64-6a4.25,4.25,0,0,1,1.46.8l-5.25,5.25h0c.25-.08,7.91-2.6,10.47-.87a47,47,0,0,0-6.87,3c-.42.29-.1.4.63.46l-.75.4c.27,0,6-.8,9.77,2l-5.51.64.1.06H1212l.41.15C1213.28,69.15,1215.44,70.39,1218.06,71.93Zm-56-14.47c-.1-.21-.21-.43-.31-.66-.61.33-1.28.65-2,1C1159.69,57.76,1160.58,57.61,1162,57.46Zm-1.84-4.78a24,24,0,0,1-.54-2.36,48.41,48.41,0,0,1-4.9,4.15,45.23,45.23,0,0,1,5.42-1.79Z" transform="translate(-6.07 -10.4)"/><path class="cls-19" d="M1066.25,86.2a13.77,13.77,0,0,1,6.06,8A21.37,21.37,0,0,0,1066.25,86.2Z" transform="translate(-6.07 -10.4)"/><path class="cls-19" d="M1048,126.38l-.1.15-1.09-.23Z" transform="translate(-6.07 -10.4)"/><path class="cls-19" d="M1045.33,82h0A45.23,45.23,0,0,0,1034,85.13,31.66,31.66,0,0,1,1045.33,82Z" transform="translate(-6.07 -10.4)"/><path class="cls-19" d="M1232.22,80.87c-.38-.23-11.54-6.8-14.16-8.94C1223.05,74.86,1229.72,78.89,1232.22,80.87Z" transform="translate(-6.07 -10.4)"/><path class="cls-19" d="M1212.16,68.51l.29.16-.42-.14Z" transform="translate(-6.07 -10.4)"/><path class="cls-18" d="M1161.68,56.8c.11.23.21.45.32.66-1.42.15-2.33.3-2.33.3A19.89,19.89,0,0,0,1161.68,56.8Z" transform="translate(-6.07 -10.4)"/><path class="cls-19" d="M1245.11,46.75c-.87-3.78-4.26-9.51-16.22-12.26-.39-.09-.78-.16-1.16-.23,7,.19,14,2,16.31,7.18A31,31,0,0,1,1245.11,46.75Z" transform="translate(-6.07 -10.4)"/><path class="cls-20" d="M1048,126.38h.06l-.17.19c-2.18-.4-4.75-.54-5.41.82-1.07,2.2,5.24,4.56,6,5.53l-6-1.74c.63,4.23,2.28,6.22,3.07,7l-3-2.46c-.4,3,3,7.63,5.23,10.24v1.71s.29,9.86,0,29.05c-.12,7.85,2,16.3,4.43,23.58a131.94,131.94,0,0,0,7.24,17,5.14,5.14,0,0,0,0,1.24,17.53,17.53,0,0,0,1.53,5.74v.12c-.41.27-3.38,2.42-1.56,6.8a2.28,2.28,0,0,0,.87,1.14,36.58,36.58,0,0,1-1.46,5.13,56.8,56.8,0,0,0-3.42,14.51,17.65,17.65,0,0,0-.07,2.06c.29,19.78,19.48,27,25,29.66s26.17,1.75,34.31,1.75,26.46-3.2,39.54-4.95,32.57-2,39.55-.87,5.52,4.07,35.47,2,29.08-39,29.08-39a65.67,65.67,0,0,0-2.82-14.33,29.06,29.06,0,0,0-2.71-6c-.55-.9-1.11-1.74-1.68-2.54,1.24-4.3-3.11-6.27-3.11-6.27a16.15,16.15,0,0,0,2.4-6.71,4.41,4.41,0,0,0-1.24-3.78c-.12-.13-.25-.25-.37-.37,7.7-12.4,12.26-29.59,11.56-39.65-.41-5.95-3.07-14.35-5.74-21.51h0c-2.94-7.88-5.89-14.25-5.89-14.25l-5.1-13.77-3.37-9.09-1.41-3.8V90.32l-2.33,2.76V84.8l-2.62,2.61-1.42-6.55a26.23,26.23,0,0,0,6.91-7.59,33,33,0,0,0,2.94-6.21,47,47,0,0,0,3.07-16.84" transform="translate(-6.07 -10.4)"/><path class="cls-20" d="M1139.25,57l.59-.53a110.9,110.9,0,0,0,9-9.77c-12.27,0-21.89,13.52-21.89,13.52.77-6,5.68-13.52,5.68-13.52-9.3,0-20.68,17.44-20.68,17.44-.33-3.49,3.24-9.59,3.24-9.59-7.56,1.74-14,14.67-14,14.67-.87-6.85,5.24-11.47,0-8.28-3.57,2.19-5.66,7.36-6.62,10.41-4.88-27.4-30.09-29.6-34.09-29.6-4.36,0-52,7-49.43,48,.64,10,3.51,17.31,7.49,22.62.18.25.37.49.56.73,8,10.09,20.06,12.66,27.65,13.21" transform="translate(-6.07 -10.4)"/><path class="cls-20" d="M1245.11,46.75a31,31,0,0,0-1.07-5.31c-3.72-12.88-14.42-19.28-18.06-21.78-5.52-3.77-34.6-17.44-56.12,4.08-8.62,8.62-10.94,16.73-10.62,23.35-10.08,1.83-19.65,9.68-20,9.92h0" transform="translate(-6.07 -10.4)"/><path class="cls-20" d="M1159.61,50.32c.15.82.33,1.6.54,2.36a45.38,45.38,0,0,0-5.43,1.79A48.3,48.3,0,0,0,1159.61,50.32Z" transform="translate(-6.07 -10.4)"/><path class="cls-20" d="M1159.69,57.76c.72-.31,1.38-.63,2-1,.11.23.21.45.32.66C1160.58,57.61,1159.69,57.76,1159.69,57.76Z" transform="translate(-6.07 -10.4)"/><path class="cls-21" d="M1208.11,56.79a4.21,4.21,0,0,1,1.45.8" transform="translate(-6.07 -10.4)"/><path class="cls-21" d="M1193.46,62.44l0,.26,0,0" transform="translate(-6.07 -10.4)"/><path class="cls-21" d="M1198,48c-1,1.11-1.53,1.81-1.53,1.81s-.25.7-.65,2.06" transform="translate(-6.07 -10.4)"/><path class="cls-21" d="M1227.73,34.26A23.56,23.56,0,0,0,1216,35.35" transform="translate(-6.07 -10.4)"/><path class="cls-20" d="M1245.33,50.22h0" transform="translate(-6.07 -10.4)"/><path class="cls-22" d="M1236.3,131.35v0a35.68,35.68,0,0,1-70.47,8.07,36.18,36.18,0,0,1,1.21-20.27,35.69,35.69,0,0,1,69.26,12.16Z" transform="translate(-6.07 -10.4)"/><path class="cls-22" d="M1233.17,116.68s2.32-9.83,7-12.29a4.49,4.49,0,0,1,1.47-.5c5.69-.92,1.9,9.59,1.9,9.59" transform="translate(-6.07 -10.4)"/><path class="cls-20" d="M1053.48,104.28s0,.1-.07.16h.21c1.08-.06,6.12-.3,7.93-.3,1.25,0-2.18,1.31-4.84,3.12-1.69,1.15-3.06,2.51-2.72,3.86l6.11-1.74h0c-.18.2-3.55,4.07-6.72,8.29-2.32,3.09-4.53,6.37-5.27,8.53l-.06.17" transform="translate(-6.07 -10.4)"/><path class="cls-20" d="M1018.59,112.36a23,23,0,0,1-.24-5,26.3,26.3,0,0,1,1.93-8.84v0c2-4.88,6-10,13.71-13.38A45.11,45.11,0,0,1,1045.33,82h0c.64-.14,12.32-2.65,20.89,4.25a21.13,21.13,0,0,1,6.06,8h0a72,72,0,0,0-10.45,1.41c-3.08.71-5.73,1.74-6.07,3.24l9.3,1.16h0c-.6.09-10.09,1.49-11.52,4.2" transform="translate(-6.07 -10.4)"/><path class="cls-21" d="M1204.32,62.84c.26-.08,7.92-2.6,10.47-.87a47,47,0,0,0-6.87,3c-.41.29-.1.4.64.46,2.21.17,8.21-.13,9.14,2.4l-.13,0-5.51.64.1.06.29.16c.85.48,3,1.72,5.63,3.27,5,2.93,11.66,7,14.16,8.93h0l.08-.06a30.62,30.62,0,0,0,7-7.53c4.07-6,7.93-15.8,5.41-29.63a9.14,9.14,0,0,0-.69-2.21c-2.37-5.14-9.3-7-16.32-7.17A51.68,51.68,0,0,0,1216,35.37l-.58.13c-6.84,1.6-13.27,6.38-17.37,12.54a29.34,29.34,0,0,0-2.18,3.87,24,24,0,0,0-2.36,10.54v.33s10-6,14.64-6a2.55,2.55,0,0,1,1.74.53l-.27.27-5.25,5.26" transform="translate(-6.07 -10.4)"/><path class="cls-21" d="M1204.32,62.84" transform="translate(-6.07 -10.4)"/><circle class="cls-23" cx="1194.18" cy="120.48" r="34.6"/><circle cx="1097.21" cy="144.18" r="25.01"/><circle cx="1194.62" cy="120.92" r="25.01"/><ellipse class="cls-2" cx="1097.03" cy="141.34" rx="11.78" ry="6.83" transform="translate(25.97 429.66) rotate(-23.01)"/><path class="cls-2" d="M1147.62,228.44v29.29s2.17,2.6,14.25,4.58c8,1.31,11.51,8.49,11.51,8.49l.87-9.53,8.85-4.84v-28l-2.44,2.79-10.86.81h-13.08Z" transform="translate(-6.07 -10.4)"/><ellipse class="cls-2" cx="1194.14" cy="118.95" rx="11.78" ry="6.83" transform="translate(42.45 465.84) rotate(-23.01)"/><circle class="cls-2" cx="1113.49" cy="145.34" r="4.94"/><circle class="cls-2" cx="1210.61" cy="124.11" r="4.94"/><ellipse class="cls-22" cx="1097.14" cy="144.25" rx="35.69" ry="35.84"/><path class="cls-24" d="M1137.59,145c-1.89,5.65,10.1-16.16,28.24-5.55" transform="translate(-6.07 -10.4)"/><path class="cls-22" d="M1067.6,152.19s-16.69-9.16-22.27-3.46,2.54,10,2.54,10" transform="translate(-6.07 -10.4)"/><path class="cls-20" d="M1133.85,179.59s6.31,10.3,15,9.12c4-.54,8.5-3.51,13.15-11,0,0,24.3,16,25.46-7.27" transform="translate(-6.07 -10.4)"/><path class="cls-20" d="M1177.89,183s-1.78,15.3-13,17.19c0,0-10.18,2.69-16.06-11.52" transform="translate(-6.07 -10.4)"/><path class="cls-20" d="M1154.72,160.69s4.94,6.14,8.66-1.95" transform="translate(-6.07 -10.4)"/><path class="cls-20" d="M1097,193.38s-28.79-.85-33.44,2.64" transform="translate(-6.07 -10.4)"/><path class="cls-20" d="M1100.51,202.12s-21.8,10.5-28.2,19.35" transform="translate(-6.07 -10.4)"/><path class="cls-20" d="M1228.26,156.62c8.33-3.06,12-7.19,22.22-7.89" transform="translate(-6.07 -10.4)"/><path class="cls-20" d="M1219.41,175.73s17.63-4.79,31.07-2.28" transform="translate(-6.07 -10.4)"/><path class="cls-20" d="M1133.85,226.69s8,1,12.32,5.38a7.52,7.52,0,0,1,5.44,1.48c2.7,2,1.19,6.42,1.19,6.42s4,3.92-1.19,6.44c0,0,4.44,5.14-10.39,6a24.32,24.32,0,0,1-12.94,5.31" transform="translate(-6.07 -10.4)"/><path class="cls-20" d="M1198.41,224.37s-8,1-12.32,5.37a7.48,7.48,0,0,0-5.44,1.49c-2.7,2-1.19,6.41-1.19,6.41s-4,3.92,1.19,6.44c0,0-4.44,5.14,10.39,6,0,0,2.52,3.78,11.53,1.75" transform="translate(-6.07 -10.4)"/><path class="cls-25" d="M1148.86,221.46s20.57,1,29.14-2.33" transform="translate(-6.07 -10.4)"/><ellipse class="cls-26" cx="1159.29" cy="218.03" rx="17.74" ry="6.83"/><ellipse class="cls-27" cx="1159.87" cy="217.39" rx="5.82" ry="2.24"/><line class="cls-20" x1="1141.55" y1="221.64" x2="1141.55" y2="218.03"/><path class="cls-20" d="M1174.24,261.27a27,27,0,0,0,8.85-4.84v-7.66" transform="translate(-6.07 -10.4)"/><path class="cls-20" d="M1147.62,251.56v6.17a39.3,39.3,0,0,0,15.59,4.75" transform="translate(-6.07 -10.4)"/><path class="cls-20" d="M1162,235.14s10.63,2.78,13.67,10.18l-1.46,15.95-.87,9.53s-4.19-7.12-10.17-8.32a8.77,8.77,0,0,0-1.34-.17" transform="translate(-6.07 -10.4)"/><path class="cls-28" d="M1258.75,264.88s5.63-11.93,1.69-20.42l-3.38,1.37L1255,240l-4.18,5.11-1.69-4.77s-9.64,9.14-13.55,21.72-3.52,22.66,5.26,24.78S1258.75,264.88,1258.75,264.88Z" transform="translate(-6.07 -10.4)"/><path class="cls-28" d="M1079.6,269.94s-3-12.85,2.69-20.31l3,2.07,3.3-5.28,3,5.86,2.66-4.28s7.48,11,8.62,24.1-1.38,22.88-10.41,23.09S1079.6,269.94,1079.6,269.94Z" transform="translate(-6.07 -10.4)"/></g><g id="Ebene_3" data-name="Ebene 3"><path class="cls-28" d="M1146.17,232.07s10.2.54,6.63,7.9c0,0,3,5.24-1.19,6.44,0,0,4.59,5.29-10.39,6C1141.22,252.42,1138.17,238.61,1146.17,232.07Z" transform="translate(-6.07 -10.4)"/><path class="cls-28" d="M1185.52,229.74s-10.21.54-6.63,7.91c0,0-3,5.23,1.18,6.44,0,0-4.58,5.28,10.39,6C1190.46,250.1,1193.51,236.29,1185.52,229.74Z" transform="translate(-6.07 -10.4)"/><path class="cls-29" d="M1148.86,188.71s6.58.9,13.14-11c0,0,8.36,6.62,15.89,5.35,0,0-1.48,13.37-12,17.4S1148.86,188.71,1148.86,188.71Z" transform="translate(-6.07 -10.4)"/><g class="cls-30"><ellipse class="cls-2" cx="1152.75" cy="148.39" rx="2.91" ry="1.02"/></g></g></svg>