<svg id="Ebene_1" data-name="Ebene 1" xmlns="http://www.w3.org/2000/svg" viewBox="0 0 900 300"><defs><style>.cls-1{fill:#95bcb5;}.cls-2{fill:#4a9;}</style></defs><polygon class="cls-1" points="47.76 151.34 102.79 54.12 214.49 53.17 271.17 149.44 216.13 246.66 104.43 247.6 47.76 151.34"/><path class="cls-2" d="M208.8,63.22l50.82,86.32-49.34,87.17-100.16.85L59.3,151.24l49.34-87.17,100.16-.85m11.38-20.09-123.25,1L36.21,151.44,98.74,257.65l123.25-1,60.72-107.27L220.18,43.13Z"/><path d="M374.55,155.54q-1.32,11.28-8.33,17.41t-18.63,6.13q-12.58,0-20.19-9t-7.59-24.17V139a40.48,40.48,0,0,1,3.54-17.43,26.37,26.37,0,0,1,10-11.55,27.92,27.92,0,0,1,15-4q11.34,0,18.17,6.32t8,17.51h-9.43q-1.22-8.52-5.29-12.34t-11.41-3.82q-9,0-14.08,6.64t-5.11,18.91v6.9q0,11.58,4.84,18.42a15.61,15.61,0,0,0,13.52,6.84q7.82,0,12-3.54t5.54-12.33Z"/><path d="M395,131.66a19.21,19.21,0,0,1,15.62-7.37q16.76,0,16.9,18.9V178.1h-9v-35c0-3.81-.9-6.62-2.61-8.45s-4.37-2.73-8-2.73a13.08,13.08,0,0,0-7.72,2.34,15.84,15.84,0,0,0-5.17,6.15V178.1h-9v-75h9Z"/><path d="M441.05,111.25a5.42,5.42,0,0,1,1.34-3.71,5.06,5.06,0,0,1,4-1.51,5.14,5.14,0,0,1,4,1.51,5.34,5.34,0,0,1,1.36,3.71,5.18,5.18,0,0,1-1.36,3.67,5.26,5.26,0,0,1-4,1.46,5.17,5.17,0,0,1-4-1.46A5.25,5.25,0,0,1,441.05,111.25Zm9.77,66.85h-9V125.27h9Z"/><path d="M473.81,125.27l.3,6.64a19.24,19.24,0,0,1,15.82-7.62q16.74,0,16.89,18.9V178.1h-9v-35c0-3.81-.9-6.62-2.61-8.45s-4.37-2.73-8-2.73a13,13,0,0,0-7.71,2.34,15.86,15.86,0,0,0-5.18,6.15V178.1h-9V125.27Z"/><path d="M553.06,178.1a19.16,19.16,0,0,1-1.27-5.57,20.13,20.13,0,0,1-15,6.55q-7.82,0-12.81-4.42a14.3,14.3,0,0,1-5-11.21q0-8.25,6.28-12.82t17.65-4.56h8.79v-4.15a10.17,10.17,0,0,0-2.84-7.55c-1.88-1.87-4.67-2.8-8.35-2.8a13.14,13.14,0,0,0-8.1,2.44,7.2,7.2,0,0,0-3.27,5.91H520a12.49,12.49,0,0,1,2.8-7.65,19.17,19.17,0,0,1,7.62-5.83A25.67,25.67,0,0,1,541,124.29q9.13,0,14.31,4.57t5.37,12.57v24.32q0,7.27,1.86,11.57v.78Zm-15-6.88a16,16,0,0,0,8.06-2.2,13.34,13.34,0,0,0,5.52-5.71V152.47h-7.08q-16.61,0-16.61,9.71a8.22,8.22,0,0,0,2.84,6.64A10.84,10.84,0,0,0,538.07,171.22Z"/></svg>