<svg id="Ebene_1" data-name="Ebene 1" xmlns="http://www.w3.org/2000/svg" viewBox="0 0 900 300"><defs><style>.cls-1{fill:#cc76c6;}.cls-2{fill:#a49;}</style></defs><polygon class="cls-1" points="47.76 151.34 102.79 54.12 214.49 53.18 271.17 149.44 216.13 246.66 104.43 247.6 47.76 151.34"/><path class="cls-2" d="M208.8,63.22l50.82,86.32-49.34,87.17-100.16.85L59.3,151.24l49.34-87.17,100.16-.85m11.38-20.09-123.25,1L36.21,151.44,98.74,257.65l123.25-1,60.72-107.27L220.18,43.13Z"/><path d="M348.33,149.34h-16.7V178.1H322.2V107h23.54q12,0,18.48,5.46t6.47,15.92A19.13,19.13,0,0,1,367.1,140a21.43,21.43,0,0,1-10,7.38l16.69,30.17v.59H363.76Zm-16.7-7.67H346q7,0,11.11-3.62a12.23,12.23,0,0,0,4.13-9.68q0-6.6-3.94-10.13T346,114.67H331.63Z"/><path d="M415,172.88q-5.28,6.19-15.48,6.2-8.44,0-12.87-4.91t-4.47-14.53V125.27h9V159.4q0,12,9.76,12,10.35,0,13.77-7.71V125.27h9V178.1h-8.59Z"/><path d="M468.3,164.09a6.64,6.64,0,0,0-2.76-5.69q-2.76-2-9.62-3.49A45.47,45.47,0,0,1,445,151.39a15.5,15.5,0,0,1-6-4.88,11.72,11.72,0,0,1-1.93-6.74,13.73,13.73,0,0,1,5.5-11q5.49-4.48,14-4.49,9,0,14.57,4.64a14.72,14.72,0,0,1,5.59,11.86h-9.08a8.15,8.15,0,0,0-3.15-6.39,11.79,11.79,0,0,0-7.93-2.69q-4.94,0-7.72,2.15a6.78,6.78,0,0,0-2.78,5.62,5.47,5.47,0,0,0,2.59,4.93q2.58,1.67,9.35,3.17a48.86,48.86,0,0,1,11,3.62,16,16,0,0,1,6.22,5.05,12.43,12.43,0,0,1,2,7.2,13.52,13.52,0,0,1-5.66,11.35q-5.67,4.27-14.7,4.28a26.55,26.55,0,0,1-11.23-2.25,18.29,18.29,0,0,1-7.64-6.27,15.15,15.15,0,0,1-2.76-8.72h9A9.34,9.34,0,0,0,448,169a14.07,14.07,0,0,0,9,2.66,14.61,14.61,0,0,0,8.23-2.07A6.39,6.39,0,0,0,468.3,164.09Z"/><path d="M519.86,164.09a6.64,6.64,0,0,0-2.76-5.69q-2.76-2-9.62-3.49a45.62,45.62,0,0,1-10.89-3.52,15.46,15.46,0,0,1-5.95-4.88,11.65,11.65,0,0,1-1.93-6.74,13.72,13.72,0,0,1,5.49-11q5.49-4.48,14-4.49,9,0,14.57,4.64a14.72,14.72,0,0,1,5.59,11.86h-9.08a8.15,8.15,0,0,0-3.15-6.39,11.79,11.79,0,0,0-7.93-2.69q-4.94,0-7.72,2.15a6.78,6.78,0,0,0-2.78,5.62,5.47,5.47,0,0,0,2.59,4.93q2.58,1.67,9.35,3.17a48.69,48.69,0,0,1,11,3.62,16.06,16.06,0,0,1,6.23,5.05,12.43,12.43,0,0,1,2,7.2,13.52,13.52,0,0,1-5.66,11.35q-5.67,4.27-14.7,4.28a26.58,26.58,0,0,1-11.23-2.25,18.29,18.29,0,0,1-7.64-6.27,15.15,15.15,0,0,1-2.76-8.72h9a9.37,9.37,0,0,0,3.64,7.2,14.07,14.07,0,0,0,9,2.66,14.61,14.61,0,0,0,8.23-2.07A6.36,6.36,0,0,0,519.86,164.09Z"/><path d="M550.47,178.1h-9v-75h9Z"/><path d="M597.54,178.1a18.9,18.9,0,0,1-1.26-5.57,20.15,20.15,0,0,1-15,6.55q-7.82,0-12.82-4.42a14.3,14.3,0,0,1-5-11.21q0-8.25,6.28-12.82t17.65-4.56h8.79v-4.15a10.16,10.16,0,0,0-2.83-7.54c-1.89-1.88-4.68-2.81-8.35-2.81a13.15,13.15,0,0,0-8.11,2.44,7.2,7.2,0,0,0-3.27,5.91h-9.08a12.39,12.39,0,0,1,2.81-7.64,19.14,19.14,0,0,1,7.61-5.84,25.67,25.67,0,0,1,10.57-2.15q9.13,0,14.31,4.57t5.37,12.57v24.32q0,7.27,1.86,11.57v.78Zm-15-6.89a15.91,15.91,0,0,0,8.06-2.19,13.3,13.3,0,0,0,5.52-5.72V152.46h-7.08q-16.6,0-16.6,9.72a8.21,8.21,0,0,0,2.83,6.64A10.85,10.85,0,0,0,582.55,171.21Z"/><path d="M627.87,125.27l.29,6.64A19.25,19.25,0,0,1,644,124.29q16.75,0,16.9,18.9V178.1h-9v-35c0-3.81-.9-6.62-2.61-8.45s-4.37-2.73-8-2.73a13.06,13.06,0,0,0-7.72,2.34,15.84,15.84,0,0,0-5.17,6.15V178.1h-9V125.27Z"/><path d="M672.3,151.24q0-12.15,5.76-19.55a18.23,18.23,0,0,1,15.09-7.4q9.27,0,14.7,6.35V103.1h9v75h-8.3l-.44-5.66q-5.42,6.63-15.09,6.64a18,18,0,0,1-15-7.52q-5.79-7.53-5.79-19.63Zm9,1q0,9,3.71,14.06a12,12,0,0,0,10.26,5.08,13.18,13.18,0,0,0,12.55-7.71V139.43A13.27,13.27,0,0,0,695.4,132,12.09,12.09,0,0,0,685,137.08Q681.34,142.21,681.33,152.27Z"/></svg>