<svg id="Ebene_1" data-name="Ebene 1" xmlns="http://www.w3.org/2000/svg" viewBox="0 0 900 300"><defs><style>.cls-1{fill:#44b767;}.cls-2{fill:#173;}</style></defs><polygon class="cls-1" points="47.76 151.34 102.79 54.12 214.49 53.18 271.17 149.44 216.13 246.66 104.43 247.6 47.76 151.34"/><path class="cls-2" d="M208.8,63.22l50.82,86.32-49.34,87.17-100.16.85L59.3,151.24l49.34-87.17,100.16-.85m11.38-20.09-123.25,1L36.21,151.44,98.74,257.65l123.25-1,60.72-107.27L220.18,43.13Z"/><path d="M372.3,107v48.34q0,10.05-6.32,16.45T349,179l-2.49.1q-11.67,0-18.6-6.3t-7-17.34V107h9.27v48.14q0,7.71,4.25,12t12.11,4.27q8,0,12.18-4.25t4.23-12V107Z"/><path d="M408,146.41q-12.06-3.47-17.55-8.52A16.29,16.29,0,0,1,385,125.41a17.2,17.2,0,0,1,6.71-13.89q6.72-5.49,17.46-5.49a29.12,29.12,0,0,1,13.06,2.83,21.5,21.5,0,0,1,8.88,7.81,20,20,0,0,1,3.15,10.89h-9.42q0-6.47-4.1-10.16t-11.57-3.7q-6.94,0-10.82,3a10.2,10.2,0,0,0-3.88,8.49,9.16,9.16,0,0,0,3.69,7.36q3.68,3,12.54,5.51a58.26,58.26,0,0,1,13.87,5.49,21.07,21.07,0,0,1,7.42,7,17.89,17.89,0,0,1,2.42,9.42,16.64,16.64,0,0,1-6.74,13.85q-6.74,5.19-18,5.2A33.44,33.44,0,0,1,396,176.27a23.08,23.08,0,0,1-9.79-7.69,18.82,18.82,0,0,1-3.44-11.09h9.42a12.27,12.27,0,0,0,4.76,10.19q4.77,3.73,12.72,3.73,7.43,0,11.38-3a9.81,9.81,0,0,0,4-8.25,9.65,9.65,0,0,0-3.67-8.08Q417.66,149.2,408,146.41Z"/><path d="M485.68,159.5H455.89l-6.68,18.6h-9.67L466.69,107h8.2l27.2,71.09h-9.62Zm-26.95-7.67H482.9l-12.11-33.25Z"/></svg>