<svg id="Ebene_1" data-name="Ebene 1" xmlns="http://www.w3.org/2000/svg" viewBox="0 0 900 300"><defs><style>.cls-1{fill:#d3d16a;}.cls-2{fill:#993;}</style></defs><polygon class="cls-1" points="47.75 151.34 102.79 54.12 214.49 53.18 271.17 149.44 216.13 246.66 104.43 247.6 47.75 151.34"/><path class="cls-2" d="M208.8,63.22l50.82,86.32-49.34,87.17-100.16.85L59.3,151.24l49.34-87.17,100.16-.85m11.38-20.09-123.25,1L36.21,151.44,98.74,257.65l123.25-1,60.72-107.27L220.18,43.13Z"/><path d="M361.51,159.5H331.72L325,178.1h-9.67L342.52,107h8.2l27.2,71.09H368.3Zm-26.95-7.67h24.17l-12.11-33.25Z"/><path d="M418.15,172.88q-5.28,6.19-15.48,6.2-8.44,0-12.86-4.91t-4.47-14.53V125.27h9V159.4q0,12,9.77,12,10.35,0,13.77-7.71V125.27h9V178.1h-8.59Z"/><path d="M471.42,164.09a6.64,6.64,0,0,0-2.76-5.69q-2.76-2-9.62-3.49a45.37,45.37,0,0,1-10.88-3.52,15.43,15.43,0,0,1-6-4.88,11.65,11.65,0,0,1-1.93-6.74,13.72,13.72,0,0,1,5.49-11q5.49-4.48,14-4.49,9,0,14.58,4.64A14.75,14.75,0,0,1,480,140.79h-9.09a8.17,8.17,0,0,0-3.14-6.39,11.82,11.82,0,0,0-7.94-2.69q-4.94,0-7.71,2.15a6.76,6.76,0,0,0-2.79,5.62,5.49,5.49,0,0,0,2.59,4.93q2.6,1.67,9.35,3.17a48.69,48.69,0,0,1,11,3.62,16,16,0,0,1,6.23,5.05,12.43,12.43,0,0,1,2,7.2,13.5,13.5,0,0,1-5.67,11.35q-5.67,4.27-14.7,4.28a26.58,26.58,0,0,1-11.23-2.25,18.35,18.35,0,0,1-7.64-6.27,15.15,15.15,0,0,1-2.76-8.72h9a9.33,9.33,0,0,0,3.63,7.2,14.09,14.09,0,0,0,9,2.66,14.61,14.61,0,0,0,8.23-2.07A6.36,6.36,0,0,0,471.42,164.09Z"/><path d="M504.48,112.47v12.8h9.86v7h-9.86v32.8a7.34,7.34,0,0,0,1.32,4.77c.88,1.06,2.37,1.59,4.49,1.59a22.09,22.09,0,0,0,4.3-.59v7.29a26.68,26.68,0,0,1-6.94,1q-6,0-9.13-3.67T495.45,165V132.25h-9.62v-7h9.62v-12.8Z"/><path d="M550.43,133.37A28,28,0,0,0,546,133q-8.88,0-12.06,7.57v37.5h-9V125.27h8.79l.14,6.1a14.08,14.08,0,0,1,12.6-7.08,9.37,9.37,0,0,1,4,.68Z"/><path d="M589.39,178.1a19.16,19.16,0,0,1-1.27-5.57,20.13,20.13,0,0,1-15,6.55q-7.82,0-12.82-4.42a14.32,14.32,0,0,1-5-11.21q0-8.25,6.27-12.82t17.66-4.56H588v-4.15a10.12,10.12,0,0,0-2.83-7.54c-1.89-1.88-4.67-2.81-8.35-2.81a13.14,13.14,0,0,0-8.1,2.44,7.2,7.2,0,0,0-3.27,5.91h-9.09a12.45,12.45,0,0,1,2.81-7.64,19.1,19.1,0,0,1,7.62-5.84,25.64,25.64,0,0,1,10.57-2.15q9.13,0,14.31,4.57T597,141.43v24.32q0,7.27,1.85,11.57v.78Zm-15-6.89a15.94,15.94,0,0,0,8.06-2.19A13.28,13.28,0,0,0,588,163.3V152.46h-7.08q-16.59,0-16.6,9.72a8.24,8.24,0,0,0,2.83,6.64A10.88,10.88,0,0,0,574.4,171.21Z"/><path d="M621,178.1h-9v-75h9Z"/><path d="M635.48,111.25a5.38,5.38,0,0,1,1.35-3.71,5.06,5.06,0,0,1,4-1.51,5.15,5.15,0,0,1,4,1.51,5.35,5.35,0,0,1,1.37,3.71,5.35,5.35,0,1,1-10.7,0Zm9.77,66.85h-9V125.27h9Z"/><path d="M681.63,179.08q-10.75,0-17.48-7.06t-6.74-18.87v-1.66a31.75,31.75,0,0,1,3-14,23.4,23.4,0,0,1,8.4-9.67,21.17,21.17,0,0,1,11.69-3.49q10.31,0,16,6.79t5.71,19.43v3.76H666.44q.19,7.81,4.57,12.62a14.33,14.33,0,0,0,11.11,4.81,15.75,15.75,0,0,0,8.1-1.95,20.37,20.37,0,0,0,5.81-5.18l5.52,4.3Q694.91,179.09,681.63,179.08Zm-1.13-47.37a12.08,12.08,0,0,0-9.18,4c-2.47,2.66-4,6.37-4.59,11.16H693.2v-.68q-.39-6.88-3.71-10.67A11.34,11.34,0,0,0,680.5,131.71Z"/><path d="M721.23,125.27l.29,6.64a19.25,19.25,0,0,1,15.82-7.62q16.74,0,16.89,18.9V178.1h-9v-35c0-3.81-.9-6.62-2.61-8.45s-4.37-2.73-8-2.73a13.06,13.06,0,0,0-7.72,2.34,16,16,0,0,0-5.18,6.15V178.1h-9V125.27Z"/></svg>