<svg id="Ebene_1" data-name="Ebene 1" xmlns="http://www.w3.org/2000/svg" viewBox="0 0 900 300"><defs><style>.cls-1{fill:#efe1a8;}.cls-2{fill:#dc7;}</style></defs><polygon class="cls-1" points="47.76 151.34 102.79 54.12 214.49 53.18 271.17 149.44 216.13 246.66 104.43 247.6 47.76 151.34"/><path class="cls-2" d="M208.8,63.22l50.82,86.32-49.34,87.17-100.16.85L59.3,151.24l49.34-87.17,100.16-.85m11.38-20.09-123.25,1L36.21,151.44,98.74,257.65l123.25-1,60.72-107.27L220.18,43.13Z"/><path d="M322.25,178.1V107h23.24q11.58,0,17.41,4.78T368.74,126a14.46,14.46,0,0,1-2.84,8.82,18.37,18.37,0,0,1-7.71,5.93,16.44,16.44,0,0,1,9.11,6.13,17.57,17.57,0,0,1,3.34,10.76q0,9.57-6.2,15t-17.53,5.47Zm9.38-40.77h14.16q6.15,0,9.84-3.08a10.37,10.37,0,0,0,3.68-8.37c0-3.92-1.14-6.76-3.42-8.54s-5.74-2.67-10.4-2.67H331.63Zm0,7.52v25.58h15.48q6.54,0,10.32-3.39t3.79-9.35q0-12.84-14-12.84Z"/><path d="M408.63,133.37a28,28,0,0,0-4.44-.34q-8.9,0-12.07,7.57v37.5h-9V125.27h8.79l.15,6.1a14.06,14.06,0,0,1,12.59-7.08,9.34,9.34,0,0,1,4,.68Z"/><path d="M447.59,178.1a19.16,19.16,0,0,1-1.27-5.57,20.13,20.13,0,0,1-15,6.55q-7.82,0-12.82-4.42a14.3,14.3,0,0,1-5-11.21q0-8.25,6.28-12.82t17.65-4.56h8.79v-4.15a10.16,10.16,0,0,0-2.83-7.54c-1.89-1.88-4.68-2.81-8.35-2.81a13.15,13.15,0,0,0-8.11,2.44,7.2,7.2,0,0,0-3.27,5.91h-9.08a12.44,12.44,0,0,1,2.8-7.64,19.17,19.17,0,0,1,7.62-5.84,25.67,25.67,0,0,1,10.57-2.15q9.14,0,14.31,4.57t5.37,12.57v24.32q0,7.27,1.86,11.57v.78Zm-15-6.89a15.91,15.91,0,0,0,8.06-2.19,13.3,13.3,0,0,0,5.52-5.72V152.46H439.1q-16.61,0-16.6,9.72a8.21,8.21,0,0,0,2.83,6.64A10.85,10.85,0,0,0,432.6,171.21Z"/><path d="M500.13,164.09a6.64,6.64,0,0,0-2.76-5.69q-2.76-2-9.62-3.49a45.37,45.37,0,0,1-10.88-3.52,15.43,15.43,0,0,1-6-4.88,11.65,11.65,0,0,1-1.93-6.74,13.72,13.72,0,0,1,5.49-11q5.5-4.48,14-4.49,9,0,14.58,4.64a14.75,14.75,0,0,1,5.59,11.86H499.6a8.15,8.15,0,0,0-3.15-6.39,11.82,11.82,0,0,0-7.94-2.69q-4.93,0-7.71,2.15a6.76,6.76,0,0,0-2.79,5.62,5.49,5.49,0,0,0,2.59,4.93q2.59,1.67,9.35,3.17a48.69,48.69,0,0,1,11,3.62,16,16,0,0,1,6.23,5.05,12.43,12.43,0,0,1,2,7.2,13.5,13.5,0,0,1-5.67,11.35q-5.65,4.27-14.7,4.28a26.58,26.58,0,0,1-11.23-2.25,18.35,18.35,0,0,1-7.64-6.27,15.15,15.15,0,0,1-2.76-8.72h9a9.33,9.33,0,0,0,3.63,7.2,14.09,14.09,0,0,0,9,2.66,14.61,14.61,0,0,0,8.23-2.07A6.36,6.36,0,0,0,500.13,164.09Z"/><path d="M521,111.25a5.38,5.38,0,0,1,1.35-3.71,5.05,5.05,0,0,1,4-1.51,5.16,5.16,0,0,1,4,1.51,5.35,5.35,0,0,1,1.37,3.71,5.18,5.18,0,0,1-1.37,3.67,5.24,5.24,0,0,1-4,1.46,5.14,5.14,0,0,1-4-1.46A5.21,5.21,0,0,1,521,111.25Zm9.77,66.85h-9V125.27h9Z"/><path d="M555,178.1h-9v-75h9Z"/><path d="M569.52,111.25a5.37,5.37,0,0,1,1.34-3.71,5.06,5.06,0,0,1,4-1.51,5.14,5.14,0,0,1,4,1.51,5.35,5.35,0,0,1,1.37,3.71,5.35,5.35,0,1,1-10.69,0Zm9.76,66.85h-9V125.27h9Z"/><path d="M615.66,179.08q-10.74,0-17.48-7.06t-6.74-18.87v-1.66a31.75,31.75,0,0,1,3-14,23.54,23.54,0,0,1,8.4-9.67,21.2,21.2,0,0,1,11.7-3.49q10.31,0,16,6.79t5.72,19.43v3.76h-35.8q.19,7.81,4.57,12.62a14.34,14.34,0,0,0,11.11,4.81,15.72,15.72,0,0,0,8.1-1.95,20.24,20.24,0,0,0,5.81-5.18l5.52,4.3Q628.93,179.09,615.66,179.08Zm-1.12-47.37a12,12,0,0,0-9.18,4c-2.48,2.66-4,6.37-4.59,11.16h26.46v-.68q-.39-6.88-3.71-10.67A11.32,11.32,0,0,0,614.54,131.71Z"/><path d="M655.26,125.27l.29,6.64a19.25,19.25,0,0,1,15.82-7.62q16.75,0,16.9,18.9V178.1h-9v-35c0-3.81-.9-6.62-2.61-8.45s-4.37-2.73-8-2.73a13.08,13.08,0,0,0-7.72,2.34,15.84,15.84,0,0,0-5.17,6.15V178.1h-9V125.27Z"/></svg>