<svg id="Ebene_1" data-name="Ebene 1" xmlns="http://www.w3.org/2000/svg" viewBox="0 0 900 300"><defs><style>.cls-1{fill:#d3e4ea;}.cls-2{fill:#8ce;}</style></defs><polygon class="cls-1" points="47.75 151.34 102.79 54.12 214.49 53.17 271.17 149.44 216.14 246.66 104.43 247.6 47.75 151.34"/><path class="cls-2" d="M208.8,63.22l50.82,86.32-49.34,87.17-100.16.85L59.3,151.24l49.34-87.17,100.16-.85m11.38-20.09-123.25,1L36.21,151.44,98.74,257.65l123.25-1,60.72-107.27L220.18,43.13Z"/><path d="M322.25,178.1V107h20.07a32.29,32.29,0,0,1,16.41,4.1,27.72,27.72,0,0,1,11,11.67,38,38,0,0,1,3.93,17.38v4.54a38.23,38.23,0,0,1-3.88,17.63A27.36,27.36,0,0,1,358.7,174a34.31,34.31,0,0,1-16.77,4.15Zm9.38-63.43v55.76h9.86q10.85,0,16.87-6.74t6-19.21v-4.15q0-12.12-5.69-18.84t-16.14-6.82Z"/><path d="M408.34,179.08q-10.75,0-17.48-7.06t-6.74-18.87v-1.66a31.75,31.75,0,0,1,3-14,23.4,23.4,0,0,1,8.4-9.67,21.17,21.17,0,0,1,11.69-3.49q10.31,0,16,6.79t5.71,19.43v3.76H393.15q.19,7.81,4.57,12.62a14.32,14.32,0,0,0,11.1,4.81,15.76,15.76,0,0,0,8.11-1.95,20.37,20.37,0,0,0,5.81-5.18l5.52,4.3Q421.62,179.09,408.34,179.08Zm-1.13-47.37a12.08,12.08,0,0,0-9.18,4c-2.47,2.66-4,6.37-4.59,11.16h26.47v-.68q-.39-6.88-3.71-10.67A11.37,11.37,0,0,0,407.21,131.71Z"/><path d="M472,172.88q-5.28,6.19-15.48,6.2-8.44,0-12.87-4.91t-4.46-14.53V125.27h9V159.4q0,12,9.76,12,10.35,0,13.77-7.71V125.27h9V178.1h-8.6Z"/><path d="M506.77,112.48v12.79h9.87v7h-9.87v32.81a7.32,7.32,0,0,0,1.32,4.76q1.32,1.59,4.49,1.59a21.25,21.25,0,0,0,4.3-.59v7.29a26.66,26.66,0,0,1-6.93,1q-6.06,0-9.13-3.67T497.74,165V132.25h-9.62v-7h9.62V112.48Z"/><path d="M558,164.09a6.65,6.65,0,0,0-2.76-5.69q-2.76-2-9.62-3.49a45.32,45.32,0,0,1-10.89-3.52,15.5,15.5,0,0,1-6-4.88,11.74,11.74,0,0,1-1.93-6.74,13.7,13.7,0,0,1,5.5-11q5.49-4.48,14-4.49,9,0,14.58,4.64a14.73,14.73,0,0,1,5.59,11.87h-9.08a8.15,8.15,0,0,0-3.15-6.4,11.82,11.82,0,0,0-7.94-2.69c-3.28,0-5.86.72-7.71,2.15a6.76,6.76,0,0,0-2.78,5.62,5.49,5.49,0,0,0,2.58,4.93q2.6,1.67,9.35,3.17a48.79,48.79,0,0,1,11,3.62,16,16,0,0,1,6.22,5.05,12.43,12.43,0,0,1,2,7.2,13.5,13.5,0,0,1-5.67,11.35q-5.65,4.27-14.69,4.28a26.52,26.52,0,0,1-11.23-2.25,18.23,18.23,0,0,1-7.64-6.27,15.13,15.13,0,0,1-2.76-8.72h9a9.31,9.31,0,0,0,3.64,7.2,14.07,14.07,0,0,0,9,2.66,14.55,14.55,0,0,0,8.22-2.07A6.37,6.37,0,0,0,558,164.09Z"/><path d="M599.94,171.7a12.94,12.94,0,0,0,8.44-2.93,10.29,10.29,0,0,0,4-7.32h8.54a16.33,16.33,0,0,1-3.12,8.64,20.61,20.61,0,0,1-7.69,6.55,22.3,22.3,0,0,1-10.18,2.44q-10.8,0-17.17-7.21t-6.37-19.7v-1.51a31.92,31.92,0,0,1,2.83-13.72,21.61,21.61,0,0,1,8.13-9.33,23.16,23.16,0,0,1,12.53-3.32,21.23,21.23,0,0,1,14.77,5.32,19,19,0,0,1,6.27,13.82h-8.54a12.47,12.47,0,0,0-3.88-8.42,12.07,12.07,0,0,0-8.62-3.3q-6.89,0-10.67,5T585.44,151v1.71q0,9.14,3.76,14.06T599.94,171.7Z"/><path d="M640.12,131.66a19.23,19.23,0,0,1,15.63-7.37q16.74,0,16.89,18.9V178.1h-9v-35c0-3.81-.9-6.62-2.61-8.45s-4.37-2.73-8-2.73a13,13,0,0,0-7.71,2.34,15.86,15.86,0,0,0-5.18,6.15V178.1h-9v-75h9Z"/><path d="M696,178.1h-9v-75h9Z"/><path d="M743.05,178.1a19.16,19.16,0,0,1-1.27-5.57,20.13,20.13,0,0,1-15,6.55c-5.2,0-9.48-1.48-12.81-4.42a14.3,14.3,0,0,1-5-11.21q0-8.25,6.28-12.82t17.65-4.56h8.79v-4.15a10.17,10.17,0,0,0-2.84-7.55c-1.88-1.87-4.67-2.8-8.34-2.8a13.15,13.15,0,0,0-8.11,2.44,7.2,7.2,0,0,0-3.27,5.91H710a12.49,12.49,0,0,1,2.8-7.65,19.17,19.17,0,0,1,7.62-5.83A25.67,25.67,0,0,1,731,124.29q9.13,0,14.31,4.57t5.37,12.57v24.32q0,7.27,1.86,11.57v.78Zm-15-6.88a16,16,0,0,0,8.06-2.2,13.34,13.34,0,0,0,5.52-5.71V152.47h-7.08q-16.6,0-16.6,9.71a8.21,8.21,0,0,0,2.83,6.64A10.84,10.84,0,0,0,728.06,171.22Z"/><path d="M773.38,125.27l.29,6.64a19.24,19.24,0,0,1,15.82-7.62q16.74,0,16.89,18.9V178.1h-9v-35c0-3.81-.9-6.62-2.61-8.45s-4.37-2.73-8-2.73A13,13,0,0,0,779,134.3a16,16,0,0,0-5.18,6.15V178.1h-9V125.27Z"/><path d="M817.81,151.24q0-12.15,5.76-19.55a18.23,18.23,0,0,1,15.09-7.4q9.27,0,14.7,6.35V103.1h9v75h-8.3l-.44-5.66q-5.42,6.63-15.09,6.64a18.06,18.06,0,0,1-15-7.52q-5.77-7.53-5.78-19.63Zm9,1q0,9,3.71,14.06a12,12,0,0,0,10.26,5.08,13.18,13.18,0,0,0,12.55-7.71V139.43A13.3,13.3,0,0,0,840.9,132a12.08,12.08,0,0,0-10.35,5.12Q826.85,142.21,826.84,152.27Z"/></svg>