<svg id="Ebene_1" data-name="Ebene 1" xmlns="http://www.w3.org/2000/svg" viewBox="0 0 900 300"><defs><style>.cls-1{fill:#af5285;}.cls-2{fill:#825;}</style></defs><polygon class="cls-1" points="47.75 151.34 102.79 54.12 214.49 53.18 271.17 149.44 216.13 246.66 104.43 247.6 47.75 151.34"/><path class="cls-2" d="M208.8,63.22l50.82,86.32-49.34,87.17-100.16.85L59.3,151.24l49.34-87.17,100.16-.85m11.38-20.09-123.25,1L36.21,151.44,98.74,257.65l123.25-1,60.72-107.27L220.18,43.13Z"/><path d="M343.2,146.41q-12.06-3.47-17.55-8.52a16.27,16.27,0,0,1-5.5-12.48,17.21,17.21,0,0,1,6.72-13.89q6.7-5.49,17.45-5.49a29.06,29.06,0,0,1,13.06,2.83,21.47,21.47,0,0,1,8.89,7.81,20,20,0,0,1,3.15,10.89H360q0-6.47-4.11-10.16t-11.57-3.7q-6.93,0-10.81,3a10.21,10.21,0,0,0-3.89,8.49,9.16,9.16,0,0,0,3.69,7.36q3.69,3,12.55,5.51a58.26,58.26,0,0,1,13.87,5.49,21.15,21.15,0,0,1,7.42,7,17.89,17.89,0,0,1,2.42,9.42,16.64,16.64,0,0,1-6.74,13.85q-6.74,5.19-18,5.2a33.44,33.44,0,0,1-13.67-2.81,23,23,0,0,1-9.79-7.69,18.75,18.75,0,0,1-3.44-11.09h9.42a12.27,12.27,0,0,0,4.76,10.19q4.76,3.73,12.72,3.73,7.43,0,11.38-3a9.82,9.82,0,0,0,3.95-8.25,9.66,9.66,0,0,0-3.66-8.08Q352.82,149.2,343.2,146.41Z"/><path d="M412.78,172.88q-5.28,6.19-15.48,6.2-8.44,0-12.87-4.91T380,159.64V125.27h9V159.4q0,12,9.77,12,10.35,0,13.77-7.71V125.27h9V178.1H413Zm-27.49-61.75a5.36,5.36,0,0,1,1.34-3.7,5.07,5.07,0,0,1,4-1.5,5.17,5.17,0,0,1,4,1.5,5.28,5.28,0,0,1,1.36,3.7,4.89,4.89,0,0,1-5.37,5.15,5.13,5.13,0,0,1-4-1.47A5.26,5.26,0,0,1,385.29,111.13Zm21,.1a5.43,5.43,0,0,1,1.34-3.73,5,5,0,0,1,4-1.52,5.11,5.11,0,0,1,4,1.52,5.4,5.4,0,0,1,1.37,3.73,4.9,4.9,0,0,1-5.37,5.15,5.11,5.11,0,0,1-4-1.47A5.23,5.23,0,0,1,406.29,111.23Z"/><path d="M433.09,151.24q0-12.15,5.76-19.55a18.23,18.23,0,0,1,15.09-7.4q9.29,0,14.7,6.35V103.1h9v75h-8.3l-.44-5.66q-5.42,6.63-15.09,6.64a18,18,0,0,1-15-7.52q-5.79-7.53-5.79-19.63Zm9,1q0,9,3.72,14.06a12,12,0,0,0,10.25,5.08,13.18,13.18,0,0,0,12.55-7.71V139.43A13.27,13.27,0,0,0,456.19,132a12.06,12.06,0,0,0-10.35,5.12Q442.12,142.21,442.12,152.27Z"/><path d="M524.3,178.1a19.16,19.16,0,0,1-1.27-5.57,20.13,20.13,0,0,1-15,6.55c-5.2,0-9.48-1.48-12.81-4.42a14.3,14.3,0,0,1-5-11.21q0-8.25,6.28-12.82t17.65-4.56h8.79v-4.15a10.13,10.13,0,0,0-2.84-7.54c-1.88-1.88-4.67-2.81-8.34-2.81A13.15,13.15,0,0,0,503.6,134a7.2,7.2,0,0,0-3.27,5.91h-9.08a12.44,12.44,0,0,1,2.8-7.64,19.1,19.1,0,0,1,7.62-5.84,25.67,25.67,0,0,1,10.57-2.15q9.13,0,14.31,4.57t5.37,12.57v24.32q0,7.27,1.86,11.57v.78Zm-15-6.89a15.94,15.94,0,0,0,8.06-2.19,13.3,13.3,0,0,0,5.52-5.72V152.46h-7.08q-16.6,0-16.6,9.72a8.21,8.21,0,0,0,2.83,6.64A10.83,10.83,0,0,0,509.31,171.21Z"/><path d="M550.52,178.1V132.25h-8.35v-7h8.35v-5.42c0-5.67,1.52-10,4.54-13.14s7.31-4.64,12.85-4.64a23.85,23.85,0,0,1,6.2.83l-.49,7.28a26.2,26.2,0,0,0-4.88-.44,8.83,8.83,0,0,0-6.79,2.57c-1.6,1.72-2.39,4.17-2.39,7.37v5.59h11.28v7H559.56V178.1Z"/><path d="M606.33,133.37a27.81,27.81,0,0,0-4.44-.34q-8.88,0-12.06,7.57v37.5h-9V125.27h8.79l.14,6.1a14.06,14.06,0,0,1,12.6-7.08,9.29,9.29,0,0,1,4,.68Z"/><path d="M614.68,111.25a5.38,5.38,0,0,1,1.35-3.71,5.06,5.06,0,0,1,4-1.51,5.15,5.15,0,0,1,4,1.51,5.35,5.35,0,0,1,1.37,3.71,5.35,5.35,0,1,1-10.7,0Zm9.77,66.85h-9V125.27h9Z"/><path d="M653.65,153.64l-5.67,5.9V178.1h-9v-75h9v45.36l4.84-5.81,16.45-17.38h11L659.7,147.34l22.95,30.76H672.06Z"/><path d="M722.2,178.1a19.16,19.16,0,0,1-1.27-5.57,20.13,20.13,0,0,1-15,6.55c-5.2,0-9.48-1.48-12.81-4.42a14.3,14.3,0,0,1-5-11.21q0-8.25,6.28-12.82T712,146.07h8.79v-4.15a10.16,10.16,0,0,0-2.83-7.54c-1.89-1.88-4.68-2.81-8.35-2.81A13.15,13.15,0,0,0,701.5,134a7.2,7.2,0,0,0-3.27,5.91h-9.08a12.44,12.44,0,0,1,2.8-7.64,19.17,19.17,0,0,1,7.62-5.84,25.67,25.67,0,0,1,10.57-2.15q9.14,0,14.31,4.57t5.37,12.57v24.32q0,7.27,1.86,11.57v.78Zm-15-6.89a15.94,15.94,0,0,0,8.06-2.19,13.3,13.3,0,0,0,5.52-5.72V152.46h-7.08q-16.61,0-16.6,9.72a8.21,8.21,0,0,0,2.83,6.64A10.85,10.85,0,0,0,707.21,171.21Z"/></svg>